<svg id="_1469884" data-name="1469884" xmlns="http://www.w3.org/2000/svg" width="94" height="94" viewBox="0 0 94 94">
  <path id="Path_3288" data-name="Path 3288" d="M217.774,24.462l-11.161-9.3H192V0h36.387V15.161H217.774Zm7.581-12.333v-9.1H195.032v9.1H207.71l7.032,5.86v-5.86Zm0,0" transform="translate(-170.774 0)" fill="#fff"/>
  <path id="Path_3289" data-name="Path 3289" d="M227.032,32H224v3.032h3.032Zm0,0" transform="translate(-175.484 -25.935)" fill="#fff"/>
  <path id="Path_3290" data-name="Path 3290" d="M268.129,32H256v3.032h12.129Zm0,0" transform="translate(-222.645 -25.935)" fill="#fff"/>
  <path id="Path_3291" data-name="Path 3291" d="M339.032,32H336v3.032h3.032Zm0,0" transform="translate(-308.71 -25.935)" fill="#fff"/>
  <path id="Path_3292" data-name="Path 3292" d="M16.821,188.226l1.226-12.273A10.619,10.619,0,0,1,9.1,165.484v-19.71h6.065v-2.1a5.454,5.454,0,0,1,2.954-4.861,9.061,9.061,0,0,1-2.954-6.689V129.1a9.1,9.1,0,1,1,18.194,0v3.032a9.1,9.1,0,0,1-5.993,8.54l8.137,8.137H44a6.08,6.08,0,0,1,4.365-5.434L54.58,141.6v-2.708a9.066,9.066,0,0,1-3.032-6.762V129.1a9.1,9.1,0,1,1,18.194,0v3.032a9.07,9.07,0,0,1-3.032,6.762v2.71l6.215,1.774a6.087,6.087,0,0,1,4.4,5.831v5.665h6.065v9.1H80.355v24.258H94v3.032H0v-3.032Zm13.5-24.258v-6.953L19.579,146.272a4.749,4.749,0,0,1-1.342-2.908,2.467,2.467,0,0,0-.044.315v18.772A4.554,4.554,0,0,0,22.742,167H34.871v-3.032ZM34.871,176.1H27.146l-1.213,12.129h8.938Zm-10.772,0H21.081l-1.213,12.129h3.017Zm-8.938-13.645V148.806H12.129v16.677a7.59,7.59,0,0,0,7.581,7.581H34.871v-3.032H22.742A7.59,7.59,0,0,1,15.161,162.452Zm15.161-30.323V129.1a6.065,6.065,0,1,0-12.129,0v3.032a6.065,6.065,0,0,0,12.129,0Zm3.921,19.71L24.127,141.723a1.7,1.7,0,0,0-2.4,2.4l10.743,10.743h16.05a1.516,1.516,0,0,0,0-3.032ZM66.709,129.1a6.065,6.065,0,1,0-12.129,0v3.032a6.065,6.065,0,0,0,12.129,0Zm-6.065,12.129a9.052,9.052,0,0,1-3.032-.531v1.629a3.877,3.877,0,0,0,3.032,1.934,3.877,3.877,0,0,0,3.032-1.934v-1.629A9.052,9.052,0,0,1,60.645,141.226Zm13.645,7.98a3.046,3.046,0,0,0-2.2-2.916l-6.246-1.784a6.247,6.247,0,0,1-10.4,0L49.2,146.288a3.021,3.021,0,0,0-2.134,2.517h1.451a4.554,4.554,0,0,1,4.548,4.548,4.486,4.486,0,0,1-.279,1.516h21.5Zm6.065,8.7h-47v3.032h47Zm-3.032,12.129H72.774V167h4.548v-3.032H37.9V167H69.742v3.032H37.9v18.194h3.611l3.032-6.065H70.679l3.032,6.065h3.611ZM44.9,188.226H70.321L68.8,185.194H46.421Zm0,0" transform="translate(0 -97.258)" fill="#fff"/>
</svg>
