<svg xmlns="http://www.w3.org/2000/svg" width="91.839" height="92.328" viewBox="0 0 91.839 92.328">
  <g id="Consult-Talk" transform="translate(-2 -1.68)">
    <rect id="Rectangle_66" data-name="Rectangle 66" width="3.061" height="3.061" transform="translate(23.429 37.375)" fill="#f8c218"/>
    <rect id="Rectangle_67" data-name="Rectangle 67" width="3.061" height="3.061" transform="translate(38.736 37.375)" fill="#f8c218"/>
    <path id="Path_3293" data-name="Path 3293" d="M92.526,54.227l-5.98-.854a21.426,21.426,0,0,0-1.006-2.449L89.158,46.1a1.531,1.531,0,0,0-.142-2L82.521,37.6a1.514,1.514,0,0,0-.928-.433V22.437a12.245,12.245,0,0,0,4.592-9.553,12.118,12.118,0,0,0-7-11.057A1.531,1.531,0,0,0,77,3.211v8.572L73.941,12.8l-3.061-1.021V3.211A1.531,1.531,0,0,0,68.7,1.833a12.118,12.118,0,0,0-7,11.051,12.245,12.245,0,0,0,4.592,9.553V32.783H61.7A1.531,1.531,0,0,0,60.18,34.1l-.99,6.932,3.031.433.8-5.617h6.53l.8,5.617a1.531,1.531,0,0,0,1.087,1.252,18.274,18.274,0,0,1,3.674,1.511,1.531,1.531,0,0,0,1.655-.118l4.532-3.4,4.616,4.616-3.406,4.532a1.531,1.531,0,0,0-.118,1.655,18.274,18.274,0,0,1,1.511,3.674,1.531,1.531,0,0,0,1.252,1.087l5.617.8V63.6l-5.617.8a1.531,1.531,0,0,0-1.252,1.087,18.274,18.274,0,0,1-1.511,3.674,1.531,1.531,0,0,0,.118,1.655l3.4,4.532L81.294,79.97l-4.529-3.41a1.531,1.531,0,0,0-1.655-.118,18.275,18.275,0,0,1-3.674,1.511A1.531,1.531,0,0,0,70.35,79.2l-.8,5.621H63.226V78.352a16.99,16.99,0,0,0-.689-4.777A13.944,13.944,0,1,0,52.75,62.765c-.037-.015-.072-.034-.109-.047l-12.375-4.95V55.415a16.974,16.974,0,0,0,5.325-4.264H49.45a4.592,4.592,0,0,0,4.592-4.592V43.216a4.592,4.592,0,0,0,3.061-4.31V34.313A4.592,4.592,0,0,0,54.042,30V28.191a21.429,21.429,0,1,0-42.858,0V30a4.592,4.592,0,0,0-3.061,4.31v4.592A4.592,4.592,0,0,0,12.715,43.5h3.061c.1,0,.193-.015.289-.021A16.872,16.872,0,0,0,24.96,55.415v2.353l-12.375,4.95A16.759,16.759,0,0,0,2,78.352V92.478a1.531,1.531,0,0,0,1.531,1.531H61.7a1.531,1.531,0,0,0,1.531-1.531V87.886h7.653a1.531,1.531,0,0,0,1.515-1.314l.854-5.98A21.43,21.43,0,0,0,75.7,79.587l4.825,3.618a1.531,1.531,0,0,0,2-.142l6.495-6.495a1.531,1.531,0,0,0,.142-2l-3.618-4.825a21.427,21.427,0,0,0,1.006-2.449l5.98-.854a1.531,1.531,0,0,0,1.312-1.514V55.742a1.531,1.531,0,0,0-1.314-1.515ZM75.689,41.082c-.072-.035-.153-.058-.225-.092V22.068H72.41V34.206l-.015-.11a1.531,1.531,0,0,0-1.515-1.313H69.349V21.67a1.531,1.531,0,0,0-.657-1.257A9.184,9.184,0,0,1,67.818,6.03v6.854a1.531,1.531,0,0,0,1.047,1.453l4.592,1.531a1.531,1.531,0,0,0,.967,0l4.592-1.531a1.531,1.531,0,0,0,1.047-1.453V6.03a9.184,9.184,0,0,1-.874,14.388,1.531,1.531,0,0,0-.657,1.252V38.956ZM55.573,60.334a10.791,10.791,0,1,1,5.1,9.094,16.708,16.708,0,0,0-4-4.4,10.463,10.463,0,0,1-1.105-4.69ZM49.45,48.089H47.592a16.684,16.684,0,0,0,1.569-4.613c.1,0,.191.021.289.021h1.531v3.061A1.531,1.531,0,0,1,49.45,48.089ZM46.389,31.252a4.615,4.615,0,0,1-3.674-1.837L39.96,25.742a1.531,1.531,0,0,0-1.032-.6,1.548,1.548,0,0,0-1.15.323l-5.137,4.1a7.681,7.681,0,0,1-4.774,1.684H18.837V29.721a13.776,13.776,0,0,1,27.552,0Zm7.653,7.653a1.531,1.531,0,0,1-1.531,1.531H49.45V32.783h3.061a1.531,1.531,0,0,1,1.531,1.531ZM32.613,9.823A18.388,18.388,0,0,1,50.981,28.191v1.531H49.45a16.837,16.837,0,0,0-33.674,0H14.245V28.191A18.388,18.388,0,0,1,32.613,9.823Zm-19.9,30.613a1.531,1.531,0,0,1-1.531-1.531V34.313a1.531,1.531,0,0,1,1.531-1.531h3.061v7.653Zm6.123,0V34.313h9.031a10.751,10.751,0,0,0,6.692-2.348l3.9-3.124,1.8,2.411a7.692,7.692,0,0,0,6.123,3.061v6.123a13.7,13.7,0,0,1-2.33,7.653H32.613V51.15h8.639A13.762,13.762,0,0,1,18.837,40.436ZM32.613,57.273a16.785,16.785,0,0,0,4.592-.652V58.8a4.592,4.592,0,0,1-9.184,0V56.621a16.785,16.785,0,0,0,4.592.652ZM60.165,90.947H50.981V74.11H47.92V90.947H17.307V74.11H14.245V90.947H5.061v-12.6a13.712,13.712,0,0,1,8.66-12.792L25.3,60.93a7.6,7.6,0,0,0,14.63,0L51.5,65.56a13.712,13.712,0,0,1,8.66,12.792Z" transform="translate(0 0)" fill="#47b7b7"/>
    <rect id="Rectangle_68" data-name="Rectangle 68" width="3.061" height="3.061" transform="translate(64.757 38.905)" fill="#f8c218"/>
    <rect id="Rectangle_69" data-name="Rectangle 69" width="3.061" height="3.061" transform="translate(64.757 78.702)" fill="#f8c218"/>
    <rect id="Rectangle_70" data-name="Rectangle 70" width="3.061" height="3.061" transform="translate(78.192 74.405) rotate(-45)" fill="#f8c218"/>
    <rect id="Rectangle_71" data-name="Rectangle 71" width="3.061" height="3.061" transform="translate(84.655 58.804)" fill="#f8c218"/>
    <rect id="Rectangle_72" data-name="Rectangle 72" width="3.061" height="3.061" transform="translate(78.193 46.265) rotate(-45)" fill="#f8c218"/>
  </g>
</svg>
