<svg xmlns="http://www.w3.org/2000/svg" width="1921" height="965" viewBox="0 0 1921 965">
  <g id="Group_3217" data-name="Group 3217" transform="translate(0.5 -7519.5)">
    <path id="Path_4895" data-name="Path 4895" d="M0,5.541S43.9-20.164,167.282,39.156C266.94,88.984,329.5,169.5,342,175s160.5,80.5,304.5,64.5c18-2,85-57.5,193.5-99,78-28.5,310.5-78,506,95,35.5,28,139,121,186.5,151s150,50.5,388-28.5V925H-.5Z" transform="translate(0 7519.5)" fill="#f8c218"/>
    <path id="Path_4896" data-name="Path 4896" d="M0,5.541S43.9-20.164,167.282,39.156C266.94,88.984,329.5,119.5,342,125s160.5,80.5,304.5,64.5c18-2,85-7.5,193.5-49,78-28.5,310.5-128,506,45,35.5,28,139,121,186.5,151s150,100.5,388,21.5V925H-.5Z" transform="translate(0 7559.5)" fill="#47b7b7"/>
  </g>
</svg>
