<svg xmlns="http://www.w3.org/2000/svg" width="254.349" height="235.015" viewBox="0 0 254.349 235.015">
  <g id="Group_2460" data-name="Group 2460" transform="translate(-67.1 -127.805)">
    <g id="Group_2429" data-name="Group 2429" transform="translate(102.721 178.813)">
      <rect id="Rectangle_900" data-name="Rectangle 900" width="153.751" height="199.227" rx="15.24" transform="translate(199.227 0) rotate(90)" fill="#b3e2df"/>
      <rect id="Rectangle_901" data-name="Rectangle 901" width="139.928" height="177.241" rx="10.443" transform="translate(190.271 6.912) rotate(90)" fill="#fff"/>
      <path id="Path_6328" data-name="Path 6328" d="M131.108,334.99A3.389,3.389,0,1,1,134.5,331.6,3.389,3.389,0,0,1,131.108,334.99Z" transform="translate(-124.924 -252.217)" fill="#2e8e8b"/>
    </g>
    <g id="Group_2432" data-name="Group 2432" transform="translate(113.609 127.805)">
      <path id="Path_6329" data-name="Path 6329" d="M157.884,198.053c10.952.93,22.14,1.241,32.766-.465l-15.381,9.02Z" transform="translate(-146.861 -153.365)" fill="#47b7b7"/>
      <path id="Path_6330" data-name="Path 6330" d="M202.912,184.005c1.193-.682,3.666-2.034,4.906-2.627,2.076,7.152,1.261,8.976-1.215,9.263a12.847,12.847,0,0,1-2.439.141,16.371,16.371,0,0,1-5.695-1.205c.12-.652.093-2,.214-2.654,1.618-.264,3.451-.648,5.069-.912Z" transform="translate(-161.726 -147.428)" fill="#f7c5b4"/>
      <path id="Path_6331" data-name="Path 6331" d="M160.955,184.005c-1.193-.682-3.666-2.034-4.906-2.627-2.076,7.152-1.261,8.976,1.215,9.263a12.156,12.156,0,0,0,2.868.189,18.908,18.908,0,0,0,5.266-1.164c-.12-.652-.093-2.091-.214-2.743-1.618-.264-3.451-.648-5.069-.912Z" transform="translate(-145.755 -147.428)" fill="#f7c5b4"/>
      <g id="Group_2430" data-name="Group 2430" transform="translate(10.147 20.744)">
        <path id="Path_6332" data-name="Path 6332" d="M164.142,186.3c-.005-2.89-.869-8.616-1.1-12.529l-1.308,2.755-5.23-2.778a27.436,27.436,0,0,1,2.979-5.762c2.156-3.5,4.9-5.316,9.105-6.522a20.052,20.052,0,0,1,5.767-.923h.288a27.871,27.871,0,0,1,6.1.789c4.008.911,7.25,3.906,9.406,7.405a31.31,31.31,0,0,1,2.59,4.859l-5.473,2.931-1.308-2.755c-.29,4.218-1.037,8.5-1.366,12.529Z" transform="translate(-156.502 -160.538)" fill="#2e8e8b"/>
      </g>
      <path id="Path_6333" data-name="Path 6333" d="M179.514,150.563a45.742,45.742,0,0,1-1.094,5.389,6.945,6.945,0,0,1-2.229,1.745s.133,2.148,5.811,2.2c5.588.055,5.947-2.226,5.947-2.226-.542-.3-2.1-.789-2.362-1.722-.12-.431-.861-4.015-1.012-5.224Z" transform="translate(-153.566 -136.141)" fill="#f7c5b4"/>
      <path id="Path_6334" data-name="Path 6334" d="M187.993,132.769c.473,2.563-.2,7.72-.75,9.758a6.372,6.372,0,0,1-1,2.357,5.517,5.517,0,0,1-7.3,1.511,5.384,5.384,0,0,1-2.046-2.415,17.292,17.292,0,0,1-1.263-8.124s-.306-7.194,7.051-7.194C182.685,128.663,187.2,128.49,187.993,132.769Z" transform="translate(-153.339 -128.119)" fill="#f7c5b4"/>
      <path id="Path_6335" data-name="Path 6335" d="M175.513,144.993a.532.532,0,0,1-.742.049,1.192,1.192,0,0,1-.368-.729,3.452,3.452,0,0,1-.06-.812.889.889,0,0,1,.165-.549.5.5,0,0,1,.883.269Z" transform="translate(-152.888 -133.289)" fill="#f7c5b4"/>
      <path id="Path_6336" data-name="Path 6336" d="M194.632,143.221a.6.6,0,0,1,.354-.423.517.517,0,0,1,.529.154.889.889,0,0,1,.165.549,3.453,3.453,0,0,1-.06.812,1.192,1.192,0,0,1-.368.729.531.531,0,0,1-.741-.049A4.121,4.121,0,0,1,194.632,143.221Z" transform="translate(-160.26 -133.289)" fill="#f7c5b4"/>
      <path id="Path_6337" data-name="Path 6337" d="M184.9,146.62a14.063,14.063,0,0,0-.266,1.883.359.359,0,0,0,.054.216c.091.128.451.166.633.191" transform="translate(-156.66 -134.697)" fill="none" stroke="#2e8e8b" stroke-linecap="round" stroke-linejoin="round" stroke-width="0.392"/>
      <path id="Path_6338" data-name="Path 6338" d="M186.824,144.625a1.106,1.106,0,0,1,.289-1.16l.084.1.253-.229.111.082a3.656,3.656,0,0,1,2.126-.643,1.19,1.19,0,0,1,.888.309.415.415,0,0,1-.25.111,5.7,5.7,0,0,0-3.4,1.461S186.85,144.7,186.824,144.625Z" transform="translate(-157.44 -133.289)" fill="#3c3c3b"/>
      <path id="Path_6339" data-name="Path 6339" d="M176.049,130.206c-.468.766-2.235,4.2-1.113,7.206a.569.569,0,0,0,.222.316c.231.13.5-.079.677-.278a7.025,7.025,0,0,0,1.445-2.472,5.082,5.082,0,0,0,.22-2.1,5,5,0,0,0,1.115,2.031,2.71,2.71,0,0,0,.617.572.444.444,0,0,0,.555-.106.611.611,0,0,0,.056-.411,3.973,3.973,0,0,0-.339-1.208,8.5,8.5,0,0,0,3.112,2.129c.363.112.839.136,1.041-.186a.833.833,0,0,0,.063-.586,2.707,2.707,0,0,0-.623-1.3,6.5,6.5,0,0,0,2.343,1.918,2.863,2.863,0,0,0,1.54.347c.53-.061,1.12-.316,1.175-.847a7.974,7.974,0,0,0-.984-4.747c-2.7-4.067-6.171-2.253-6.9-2.347a4.4,4.4,0,0,0-4.223,2.077" transform="translate(-152.972 -127.805)" fill="#3c3c3b"/>
      <path id="Path_6340" data-name="Path 6340" d="M193.729,137.164a5.262,5.262,0,0,0,.565,3.2c.061.114.143.238.271.256a.294.294,0,0,0,.274-.15.859.859,0,0,0,.1-.312,5.814,5.814,0,0,0-.061-3.348.55.55,0,0,0-.136-.208.432.432,0,0,0-.271-.087.766.766,0,0,0-.75.76" transform="translate(-159.971 -130.995)" fill="#3c3c3b"/>
      <path id="Path_6341" data-name="Path 6341" d="M186.555,156.613a5.442,5.442,0,0,1-5.663.02S183.839,159.873,186.555,156.613Z" transform="translate(-155.288 -138.357)" fill="#f7c5b4" style="mix-blend-mode: multiply;isolation: isolate"/>
      <path id="Path_6342" data-name="Path 6342" d="M181.3,144.625a1.1,1.1,0,0,0-.288-1.16l-.084.1-.254-.229-.111.082a3.656,3.656,0,0,0-2.126-.643,1.19,1.19,0,0,0-.888.309.415.415,0,0,0,.25.111,5.7,5.7,0,0,1,3.4,1.461S181.272,144.7,181.3,144.625Z" transform="translate(-154.063 -133.289)" fill="#3c3c3b"/>
      <path id="Path_6343" data-name="Path 6343" d="M186.173,151.136a1.941,1.941,0,0,1-1.607.748" transform="translate(-156.634 -136.351)" fill="none" stroke="#2e8e8b" stroke-linecap="round" stroke-linejoin="round" stroke-width="0.453"/>
      <path id="Path_6344" data-name="Path 6344" d="M190.373,147.209c0,.313-.191.567-.426.567s-.426-.254-.426-.567.191-.568.426-.568S190.373,146.9,190.373,147.209Z" transform="translate(-158.448 -134.704)" fill="#3c3c3b"/>
      <path id="Path_6345" data-name="Path 6345" d="M180.058,147.2c0,.314-.191.568-.426.568s-.426-.254-.426-.568.191-.567.426-.567S180.058,146.891,180.058,147.2Z" transform="translate(-154.67 -134.703)" fill="#3c3c3b"/>
      <rect id="Rectangle_902" data-name="Rectangle 902" width="24.382" height="17.1" rx="3.2" transform="translate(15.786 31.633)" fill="#f8c218"/>
      <path id="Path_6346" data-name="Path 6346" d="M173.744,209.061c9.031-.255,18.654-.781,27.121-3.932a11.985,11.985,0,0,0,3.778-2.024,4.393,4.393,0,0,0-1.517-7.829,10.646,10.646,0,0,0-5.522-.177c-8.306,1.491-16.18,6.811-24.323,9.608Z" transform="translate(-152.5 -152.352)" fill="#47b7b7"/>
      <path id="Path_6347" data-name="Path 6347" d="M166.406,210.733c-1.925-.139-3.77-.407-5.7-.4a12.756,12.756,0,0,0-4.025.478,4.138,4.138,0,0,0-1.572.894,2.141,2.141,0,0,0-.7,1.554,2.471,2.471,0,0,0,1.368,1.952,6.345,6.345,0,0,0,2.494.656,19.585,19.585,0,0,0,8.559-1.126Z" transform="translate(-145.589 -158.033)" fill="#2e8e8b"/>
      <path id="Path_6348" data-name="Path 6348" d="M193.206,197.136c-6.323,2.175-12.794,6.182-19.144,8.245" transform="translate(-152.787 -153.199)" fill="none" stroke="#2e8e8b" stroke-miterlimit="10" stroke-width="0.582"/>
      <path id="Path_6349" data-name="Path 6349" d="M173.385,208.193c-9.032-.228-18.8-.72-27.279-3.845a12.006,12.006,0,0,1-3.783-2.013,4.393,4.393,0,0,1,1.494-7.833,10.65,10.65,0,0,1,5.522-.193c8.311,1.466,16.08,6.908,24.231,9.681Z" transform="translate(-140.49 -152.066)" fill="#47b7b7"/>
      <path id="Path_6350" data-name="Path 6350" d="M163.175,196.852c6.292,2.262,12.384,6.017,18.7,8.167" transform="translate(-148.799 -153.095)" fill="none" stroke="#2e8e8b" stroke-miterlimit="10" stroke-width="0.582"/>
      <path id="Path_6351" data-name="Path 6351" d="M192.4,213.818a18.935,18.935,0,0,0,8.417,1.107,6.336,6.336,0,0,0,2.491-.664,2.468,2.468,0,0,0,1.362-1.956,2.14,2.14,0,0,0-.7-1.553,4.129,4.129,0,0,0-1.574-.889,12.725,12.725,0,0,0-4.027-.466q-2.892,0-5.781.216Z" transform="translate(-159.503 -157.691)" fill="#2e8e8b"/>
      <path id="Path_6352" data-name="Path 6352" d="M159.712,189.086a4.379,4.379,0,0,1,2.195-.367" transform="translate(-147.531 -150.116)" fill="none" stroke="#2e8e8b" stroke-miterlimit="10" stroke-width="0.25"/>
      <g id="Group_2431" data-name="Group 2431" transform="translate(25.014 37.344)">
        <path id="Path_6353" data-name="Path 6353" d="M183.816,186.847c3.187.762,1.745,4.283,1.745,4.283a1.009,1.009,0,0,1-1.14,1.35.621.621,0,0,0-.349.814,3.533,3.533,0,0,1-1.117.163,4.419,4.419,0,0,1-1.195-.163.621.621,0,0,0-.349-.814,1.009,1.009,0,0,1-1.141-1.35s-1.4-3.352,1.746-4.283A3.449,3.449,0,0,1,183.816,186.847Z" transform="translate(-179.961 -186.733)" fill="#fff"/>
        <path id="Path_6354" data-name="Path 6354" d="M185.246,191.51a.562.562,0,0,1,.375-.264,1.252,1.252,0,0,1,.473.024,4.771,4.771,0,0,1,.548.144.716.716,0,0,1,.362.212.635.635,0,0,1,.1.419,1.131,1.131,0,0,1-.135.512.687.687,0,0,1-.4.329,1.017,1.017,0,0,1-.871-.315,1.192,1.192,0,0,1-.493-.774A.981.981,0,0,1,185.246,191.51Z" transform="translate(-181.88 -188.381)" fill="#f8c218"/>
        <path id="Path_6355" data-name="Path 6355" d="M183.037,191.651a.564.564,0,0,0-.309-.339,1.251,1.251,0,0,0-.466-.079,4.69,4.69,0,0,0-.566.021.717.717,0,0,0-.4.128.636.636,0,0,0-.188.387,1.134,1.134,0,0,0,.02.53.687.687,0,0,0,.323.409,1.014,1.014,0,0,0,.918-.118,1.191,1.191,0,0,0,.65-.648A.985.985,0,0,0,183.037,191.651Z" transform="translate(-180.373 -188.381)" fill="#f8c218"/>
        <path id="Path_6356" data-name="Path 6356" d="M184.514,193.008a.321.321,0,0,1,.1.081,1.556,1.556,0,0,1,.255.574.24.24,0,0,1-.021.21.114.114,0,0,1-.128.013.522.522,0,0,0-.127-.05.325.325,0,0,0-.147.036.207.207,0,0,1-.226-.016.263.263,0,0,1-.063-.2.689.689,0,0,1,.052-.209,2.409,2.409,0,0,1,.165-.349S184.457,192.979,184.514,193.008Z" transform="translate(-181.496 -189.03)" fill="#f8c218"/>
      </g>
      <path id="Path_6357" data-name="Path 6357" d="M208.973,189.086a4.38,4.38,0,0,0-2.2-.367" transform="translate(-164.77 -150.116)" fill="none" stroke="#2e8e8b" stroke-miterlimit="10" stroke-width="0.25"/>
    </g>
    <g id="Group_2434" data-name="Group 2434" transform="translate(182.437 225.763)">
      <rect id="Rectangle_903" data-name="Rectangle 903" width="41.641" height="37.068" transform="translate(0 24.452)" fill="#47b7b7"/>
      <path id="Path_6358" data-name="Path 6358" d="M256.23,298.681a16.349,16.349,0,0,1,16.3-16.3h0a16.349,16.349,0,0,1,16.3,16.3v8.151" transform="translate(-251.71 -282.38)" fill="none" stroke="#2e8e8b" stroke-miterlimit="10" stroke-width="4"/>
      <rect id="Rectangle_904" data-name="Rectangle 904" width="10.064" height="37.068" transform="translate(3.866 24.452)" fill="#b3e2df"/>
      <g id="Group_2433" data-name="Group 2433" transform="translate(15.767 35.485)">
        <circle id="Ellipse_188" data-name="Ellipse 188" cx="5.053" cy="5.053" r="5.053" transform="translate(0 6.503)" fill="#fff"/>
        <circle id="Ellipse_189" data-name="Ellipse 189" cx="3.513" cy="3.513" r="3.513" transform="translate(1.54)" fill="#fff"/>
      </g>
    </g>
    <g id="Group_2436" data-name="Group 2436" transform="translate(173.145 132.643)">
      <line id="Line_70" data-name="Line 70" y2="54.259" transform="translate(53.933 16.956)" fill="none" stroke="#2e8e8b" stroke-miterlimit="10" stroke-width="0.5"/>
      <line id="Line_71" data-name="Line 71" y2="50.399" transform="translate(10.56 15.873)" fill="none" stroke="#2e8e8b" stroke-miterlimit="10" stroke-width="0.482"/>
      <g id="Group_2435" data-name="Group 2435" transform="translate(3.139 60.067)">
        <path id="Path_6359" data-name="Path 6359" d="M267.175,249.859H301.24a2.175,2.175,0,0,0,2.168-2.168h0a2.175,2.175,0,0,0-2.168-2.168H267.175a2.175,2.175,0,0,0-2.168,2.168h0A2.175,2.175,0,0,0,267.175,249.859Z" transform="translate(-248.772 -235.827)" fill="#f8c218"/>
        <rect id="Rectangle_905" data-name="Rectangle 905" width="3.348" height="3.663" transform="translate(49.121 14.032)" fill="#f8c218"/>
        <rect id="Rectangle_906" data-name="Rectangle 906" width="2.512" height="2.931" transform="translate(47.027 16.962) rotate(180)" fill="#f8c218"/>
        <rect id="Rectangle_907" data-name="Rectangle 907" width="2.617" height="2.931" transform="translate(42.213 16.962) rotate(180)" fill="#f8c218"/>
        <rect id="Rectangle_908" data-name="Rectangle 908" width="28.707" height="0.517" transform="translate(52.469 11.148) rotate(180)" fill="#fff"/>
        <rect id="Rectangle_909" data-name="Rectangle 909" width="3.348" height="0.733" transform="translate(52.469 17.695) rotate(180)" fill="#47b7b7"/>
        <rect id="Rectangle_910" data-name="Rectangle 910" width="2.512" height="0.605" transform="translate(47.027 16.962) rotate(180)" fill="#47b7b7"/>
        <rect id="Rectangle_911" data-name="Rectangle 911" width="2.617" height="0.605" transform="translate(42.213 16.962) rotate(180)" fill="#47b7b7"/>
        <path id="Path_6360" data-name="Path 6360" d="M239.388,241.371a11.149,11.149,0,1,0,11.148-11.148A11.149,11.149,0,0,0,239.388,241.371Z" transform="translate(-239.388 -230.223)" fill="#f8c218"/>
        <path id="Path_6361" data-name="Path 6361" d="M241.923,242.3a9.542,9.542,0,1,0,9.542-9.543A9.542,9.542,0,0,0,241.923,242.3Z" transform="translate(-240.316 -231.151)" fill="#d39c00"/>
        <path id="Path_6362" data-name="Path 6362" d="M248.289,246.359a2.52,2.52,0,1,0,2.52-2.52A2.519,2.519,0,0,0,248.289,246.359Z" transform="translate(-242.648 -235.21)" fill="#fff"/>
      </g>
      <path id="Path_6363" data-name="Path 6363" d="M237.317,148.425c2.674-2.8,8.616-2.921,11.659-.525,2.953-6.773,12.218-9.872,18.652-6.24,1.239-3.425,6.605-7.584,14.36-5.788,5.228,1.21,9.908,6.257,8.541,11.445,3.612-.522,7.261,1.96,8.661,5.331a12.169,12.169,0,0,1-1.036,10.52H238.828S230.045,156.045,237.317,148.425Z" transform="translate(-234.435 -135.44)" fill="#2e8e8b"/>
    </g>
    <g id="Group_2437" data-name="Group 2437" transform="translate(121.17 238.237)">
      <rect id="Rectangle_912" data-name="Rectangle 912" width="23.286" height="0.789" fill="#b3e2df"/>
      <rect id="Rectangle_913" data-name="Rectangle 913" width="23.286" height="0.789" transform="translate(0 3.107)" fill="#b3e2df"/>
      <rect id="Rectangle_914" data-name="Rectangle 914" width="23.286" height="0.788" transform="translate(0 6.089)" fill="#b3e2df"/>
      <rect id="Rectangle_915" data-name="Rectangle 915" width="12.263" height="0.789" transform="translate(0 9.049)" fill="#b3e2df"/>
    </g>
    <g id="Group_2441" data-name="Group 2441" transform="translate(84.252 267.397)">
      <rect id="Rectangle_916" data-name="Rectangle 916" width="82.369" height="49.851" transform="translate(0 24.911)" fill="#47b7b7"/>
      <path id="Path_6364" data-name="Path 6364" d="M94.165,372.987l41.184-24.911,41.184,24.911Z" transform="translate(-94.165 -348.077)" fill="#47b7b7"/>
      <g id="Group_2440" data-name="Group 2440" transform="translate(13.781 6.735)">
        <rect id="Rectangle_917" data-name="Rectangle 917" width="56.166" height="63.826" fill="#fff"/>
        <g id="Group_2438" data-name="Group 2438" transform="translate(3.933 9.487)">
          <rect id="Rectangle_918" data-name="Rectangle 918" width="48.3" height="1.698" fill="#b3e2df"/>
          <rect id="Rectangle_919" data-name="Rectangle 919" width="48.3" height="1.698" transform="translate(0 4.128)" fill="#b3e2df"/>
          <rect id="Rectangle_920" data-name="Rectangle 920" width="48.3" height="1.698" transform="translate(0 8.48)" fill="#b3e2df"/>
          <rect id="Rectangle_921" data-name="Rectangle 921" width="21.878" height="1.698" transform="translate(0 13.129)" fill="#b3e2df"/>
        </g>
        <g id="Group_2439" data-name="Group 2439" transform="translate(3.933 29.567)">
          <rect id="Rectangle_922" data-name="Rectangle 922" width="48.3" height="1.698" fill="#b3e2df"/>
          <rect id="Rectangle_923" data-name="Rectangle 923" width="48.3" height="1.698" transform="translate(0 4.128)" fill="#b3e2df"/>
          <rect id="Rectangle_924" data-name="Rectangle 924" width="48.3" height="1.698" transform="translate(0 8.48)" fill="#b3e2df"/>
          <rect id="Rectangle_925" data-name="Rectangle 925" width="21.878" height="1.698" transform="translate(0 13.129)" fill="#b3e2df"/>
        </g>
      </g>
      <path id="Path_6365" data-name="Path 6365" d="M94.165,451.642l41.184-24.925,41.184,24.925Z" transform="translate(-94.165 -376.881)" fill="#b3e2df"/>
      <path id="Path_6366" data-name="Path 6366" d="M94.165,387.385,135.35,412.31,94.165,437.236Z" transform="translate(-94.165 -362.474)" fill="#2e8e8b"/>
      <path id="Path_6367" data-name="Path 6367" d="M200.338,387.385,159.153,412.31l41.184,24.925Z" transform="translate(-117.969 -362.474)" fill="#2e8e8b"/>
    </g>
    <g id="Group_2442" data-name="Group 2442" transform="translate(67.1 311.11)">
      <circle id="Ellipse_190" data-name="Ellipse 190" cx="18.282" cy="18.282" r="18.282" transform="translate(0 25.855) rotate(-45)" fill="#f8c218"/>
      <path id="Path_6368" data-name="Path 6368" d="M100.49,439.082l11.031,14.013h-6.41v9.69H95.869v-9.54h-6.41Z" transform="translate(-75.29 -425.123)" fill="#2e8e8b"/>
    </g>
    <g id="Group_2444" data-name="Group 2444" transform="translate(236.67 256.698)">
      <g id="Group_2443" data-name="Group 2443" transform="translate(0 5.923)">
        <rect id="Rectangle_926" data-name="Rectangle 926" width="48.477" height="0.789" fill="#b3e2df"/>
        <rect id="Rectangle_927" data-name="Rectangle 927" width="48.477" height="0.788" transform="translate(0 3.107)" fill="#b3e2df"/>
        <rect id="Rectangle_928" data-name="Rectangle 928" width="48.477" height="0.789" transform="translate(0 6.089)" fill="#b3e2df"/>
        <rect id="Rectangle_929" data-name="Rectangle 929" width="48.768" height="0.789" transform="translate(0 9.049)" fill="#b3e2df"/>
      </g>
      <rect id="Rectangle_930" data-name="Rectangle 930" width="3.737" height="3.961" fill="#f8c218"/>
    </g>
    <g id="Group_2446" data-name="Group 2446" transform="translate(236.67 276.959)">
      <g id="Group_2445" data-name="Group 2445" transform="translate(0 5.923)">
        <rect id="Rectangle_931" data-name="Rectangle 931" width="48.477" height="0.788" fill="#b3e2df"/>
        <rect id="Rectangle_932" data-name="Rectangle 932" width="48.477" height="0.788" transform="translate(0 3.107)" fill="#b3e2df"/>
        <rect id="Rectangle_933" data-name="Rectangle 933" width="48.477" height="0.789" transform="translate(0 6.089)" fill="#b3e2df"/>
        <rect id="Rectangle_934" data-name="Rectangle 934" width="48.768" height="0.788" transform="translate(0 9.049)" fill="#b3e2df"/>
      </g>
      <rect id="Rectangle_935" data-name="Rectangle 935" width="3.737" height="3.961" fill="#f8c218"/>
    </g>
    <g id="Group_2450" data-name="Group 2450" transform="translate(84.799 199.08)">
      <rect id="Rectangle_936" data-name="Rectangle 936" width="78.497" height="31.854" rx="5" transform="translate(1.17 0)" fill="#c7d4e2" style="mix-blend-mode: multiply;isolation: isolate"/>
      <rect id="Rectangle_937" data-name="Rectangle 937" width="78.497" height="30.491" rx="5" transform="translate(0 1.363)" fill="#fff"/>
      <g id="Group_2447" data-name="Group 2447" transform="translate(4.96 8.31)">
        <path id="Path_6369" data-name="Path 6369" d="M122,276.571a10.268,10.268,0,0,0-19.146-.007Z" transform="translate(-102.854 -259.477)" fill="#b3e2df"/>
        <path id="Path_6370" data-name="Path 6370" d="M119.9,257.955a4.567,4.567,0,1,1-4.567-4.567A4.566,4.566,0,0,1,119.9,257.955Z" transform="translate(-105.751 -253.388)" fill="#b3e2df"/>
      </g>
      <g id="Group_2448" data-name="Group 2448" transform="translate(26.609 12.044)">
        <rect id="Rectangle_938" data-name="Rectangle 938" width="48.477" height="0.788" fill="#b3e2df"/>
        <rect id="Rectangle_939" data-name="Rectangle 939" width="48.477" height="0.788" transform="translate(0 3.107)" fill="#b3e2df"/>
        <rect id="Rectangle_940" data-name="Rectangle 940" width="48.477" height="0.789" transform="translate(0 6.089)" fill="#b3e2df"/>
        <rect id="Rectangle_941" data-name="Rectangle 941" width="25.528" height="0.788" transform="translate(0 9.049)" fill="#b3e2df"/>
      </g>
      <g id="Group_2449" data-name="Group 2449" transform="translate(26.609 12.044)">
        <rect id="Rectangle_942" data-name="Rectangle 942" width="48.477" height="0.788" fill="#b3e2df"/>
        <rect id="Rectangle_943" data-name="Rectangle 943" width="48.477" height="0.788" transform="translate(0 3.107)" fill="#b3e2df"/>
        <rect id="Rectangle_944" data-name="Rectangle 944" width="48.477" height="0.789" transform="translate(0 6.089)" fill="#b3e2df"/>
        <rect id="Rectangle_945" data-name="Rectangle 945" width="25.528" height="0.788" transform="translate(0 9.049)" fill="#b3e2df"/>
      </g>
    </g>
    <g id="Group_2451" data-name="Group 2451" transform="translate(229.342 228.266)">
      <path id="Path_6371" data-name="Path 6371" d="M323.113,291.357l1.735,1.8a13.632,13.632,0,0,1,10.411-4.37,14.928,14.928,0,0,1,10.154,4.37l1.8-1.8S336.03,280.046,323.113,291.357Z" transform="translate(-323.113 -286.33)" fill="#2e8e8b"/>
      <path id="Path_6372" data-name="Path 6372" d="M327.879,297.066l1.928,1.928s5.656-6.427,14.2,0l1.735-1.928S337.776,289.033,327.879,297.066Z" transform="translate(-324.859 -288.954)" fill="#2e8e8b"/>
      <path id="Path_6373" data-name="Path 6373" d="M334.813,304.8s3.856-3.92,7.712,0l1.928-2.056a8.8,8.8,0,0,0-11.5,0Z" transform="translate(-326.716 -291.546)" fill="#2e8e8b"/>
      <path id="Path_6374" data-name="Path 6374" d="M342.935,310.156A2.153,2.153,0,1,1,340.782,308,2.153,2.153,0,0,1,342.935,310.156Z" transform="translate(-328.796 -294.268)" fill="#2e8e8b"/>
    </g>
    <g id="Group_2454" data-name="Group 2454" transform="translate(178.291 299.293)">
      <g id="Group_2452" data-name="Group 2452" transform="translate(23.869 5.567)">
        <rect id="Rectangle_946" data-name="Rectangle 946" width="48.477" height="0.789" fill="#b3e2df"/>
        <rect id="Rectangle_947" data-name="Rectangle 947" width="48.477" height="0.789" transform="translate(0 3.107)" fill="#b3e2df"/>
        <rect id="Rectangle_948" data-name="Rectangle 948" width="48.477" height="0.788" transform="translate(0 6.089)" fill="#b3e2df"/>
        <rect id="Rectangle_949" data-name="Rectangle 949" width="48.768" height="0.789" transform="translate(0 9.049)" fill="#b3e2df"/>
      </g>
      <g id="Group_2453" data-name="Group 2453" transform="translate(5.401 3.226)">
        <circle id="Ellipse_191" data-name="Ellipse 191" cx="7.218" cy="7.218" r="7.218" fill="none" stroke="#f8c218" stroke-miterlimit="10" stroke-width="2.253"/>
        <line id="Line_72" data-name="Line 72" x1="10.178" y2="10.178" transform="translate(2.129 2.17)" fill="none" stroke="#f8c218" stroke-miterlimit="10" stroke-width="2.253"/>
      </g>
      <rect id="Rectangle_950" data-name="Rectangle 950" width="76.444" height="20.889" rx="7.067" fill="none" stroke="#2e8e8b" stroke-miterlimit="10" stroke-width="0.5"/>
    </g>
    <g id="Group_2457" data-name="Group 2457" transform="translate(248.034 193.023)">
      <g id="Group_2455" data-name="Group 2455" transform="translate(0 0)">
        <rect id="Rectangle_951" data-name="Rectangle 951" width="72.338" height="29.355" rx="5" transform="translate(1.078)" fill="#c7d4e2" style="mix-blend-mode: multiply;isolation: isolate"/>
        <rect id="Rectangle_952" data-name="Rectangle 952" width="72.338" height="28.098" rx="5" transform="translate(0 1.256)" fill="#fff"/>
        <path id="Path_6375" data-name="Path 6375" d="M353.4,237.862h71.55v-2.328a2.843,2.843,0,0,0-2.834-2.834H355.443a2.843,2.843,0,0,0-2.835,2.834v2.328Z" transform="translate(-352.608 -231.444)" fill="#b3e2df"/>
        <text id="_" data-name="*******" transform="translate(32.564 22.642)" fill="#b3e2df" font-size="6" font-family="SegoeUI, Segoe UI" letter-spacing="0.1em"><tspan x="0" y="0">*******</tspan></text>
        <text id="_2" data-name="*****" transform="translate(32.564 16.264)" fill="#b3e2df" font-size="6" font-family="SegoeUI, Segoe UI" letter-spacing="0.1em"><tspan x="0" y="0">*****</tspan></text>
        <rect id="Rectangle_953" data-name="Rectangle 953" width="64.774" height="16.758" transform="translate(4.193 8.689)" fill="none" stroke="#2e8e8b" stroke-miterlimit="10" stroke-width="0.224"/>
        <text id="LOGIN_PASSWORD" data-name="LOGIN
PASSWORD" transform="translate(10.377 13.219)" fill="#b3e2df" font-size="2" font-family="SegoeUI, Segoe UI"><tspan x="0" y="0">LOGIN</tspan><tspan x="0" y="3">PASSWORD</tspan></text>
      </g>
      <path id="Path_6376" data-name="Path 6376" d="M428.991,299.071a23.755,23.755,0,0,0,3.664-10.5,78.54,78.54,0,0,0,.314-11.789,5.94,5.94,0,0,1-1.36-1.515c-.157-.261-.281-.629-.065-.844a.548.548,0,0,1,.4-.132,3.775,3.775,0,0,1,1.36.569,4.515,4.515,0,0,0,2.207.187l2.228-.182a.9.9,0,0,1,.389.025.469.469,0,0,1,.206.682l-.465,1.21a61.378,61.378,0,0,1-1.518,20.521,20.468,20.468,0,0,1-3.382,6.783" transform="translate(-380.585 -246.679)" fill="#f7c5b4"/>
      <path id="Path_6377" data-name="Path 6377" d="M379.91,299.147a23.749,23.749,0,0,1-3.663-10.5,78.536,78.536,0,0,1-.314-11.789,5.941,5.941,0,0,0,1.361-1.515c.157-.262.281-.629.064-.843a.548.548,0,0,0-.4-.132,3.779,3.779,0,0,0-1.36.569,4.514,4.514,0,0,1-2.207.187l-2.228-.182a.9.9,0,0,0-.388.025.469.469,0,0,0-.206.682l.464,1.21a61.389,61.389,0,0,0,1.519,20.52,20.453,20.453,0,0,0,3.381,6.783" transform="translate(-359.159 -246.707)" fill="#f7c5b4"/>
      <path id="Path_6378" data-name="Path 6378" d="M410.048,368.124c1.258,3.648,2.563,18.361,2.835,22.253,1.126,16.086.694,21.72.082,36.937-.153,3.823-.325,8.758-.479,12.58h-4.843c-2.467-15.073-6.456-47.293-7.68-62.542,0,0-4.991,47.239-7.41,62.321h-4.936c-.166-3.821-.26-8.741-.426-12.563-.379-8.711-.2-16.231-.136-24.958.046-6.517-.221-14.247.5-20.727.43-3.878.69-9.648,1.935-13.3Z" transform="translate(-365.189 -281.046)" fill="#47b7b7"/>
      <path id="Path_6379" data-name="Path 6379" d="M419.607,481.395a2.622,2.622,0,0,0,.671,2.357,5.631,5.631,0,0,0,2.228,1.155,10.247,10.247,0,0,0,5.057.793c.428-.079.915-.282,1.015-.723a1.3,1.3,0,0,0-.485-1.1,16.574,16.574,0,0,0-3.657-2.5Z" transform="translate(-377.14 -322.527)" fill="#2e8e8b"/>
      <path id="Path_6380" data-name="Path 6380" d="M390.6,481.045a2.623,2.623,0,0,1-.671,2.357,5.631,5.631,0,0,1-2.227,1.155,10.247,10.247,0,0,1-5.057.793c-.428-.079-.915-.282-1.015-.723a1.3,1.3,0,0,1,.485-1.1,16.572,16.572,0,0,1,3.657-2.5Z" transform="translate(-363.231 -322.399)" fill="#2e8e8b"/>
      <path id="Path_6381" data-name="Path 6381" d="M389.3,314.315a5.833,5.833,0,0,1-2.435.124,4.629,4.629,0,0,1-1.413-.556,9.479,9.479,0,0,1-3.164-2.776l-4.359,5.562a14.56,14.56,0,0,0,2.572,4.482,10.256,10.256,0,0,0,4.513,2.935,171.548,171.548,0,0,1,1.17,23.155s3.256.231,8.15.561c.39.027.792.046,1.2.058l.778-.006h.3l.778.006c.409-.013.81-.032,1.2-.058,4.894-.33,8.15-.561,8.15-.561-.271-10.77.329-13.852,1.17-23.155a10.253,10.253,0,0,0,4.513-2.935,14.575,14.575,0,0,0,2.572-4.482l-4.36-5.562a9.479,9.479,0,0,1-3.164,2.776,4.624,4.624,0,0,1-1.413.556,7.39,7.39,0,0,1-2.738-.23Z" transform="translate(-361.881 -260.162)" fill="#2e8e8b"/>
      <path id="Path_6382" data-name="Path 6382" d="M405.594,305.848q.232,1.649.463,3.3a5.1,5.1,0,0,0,.321,1.449c.313.572,3.016,1.377,3.514,1.645,0,0-2.12,1.849-7.2,2.126s-6.822-2.019-6.822-2.019c.49-.283,2.994-1.263,3.289-1.844a5.056,5.056,0,0,0,.278-1.458l.365-3.31" transform="translate(-368.453 -258.194)" fill="#f7c5b4"/>
      <path id="Path_6383" data-name="Path 6383" d="M408.861,285.941c.465,2.324-.077,7.024-.55,8.885a5.791,5.791,0,0,1-.875,2.157,5.017,5.017,0,0,1-6.622,1.474,4.9,4.9,0,0,1-1.893-2.168,15.719,15.719,0,0,1-1.259-7.372s-.376-6.539,6.316-6.638C403.977,282.279,408.084,282.059,408.861,285.941Z" transform="translate(-369.095 -249.602)" fill="#f7c5b4"/>
      <path id="Path_6384" data-name="Path 6384" d="M397.323,296.459a.483.483,0,0,1-.674.054,1.084,1.084,0,0,1-.345-.658,3.165,3.165,0,0,1-.066-.738.807.807,0,0,1,.143-.5.458.458,0,0,1,.807.233Z" transform="translate(-368.588 -254.062)" fill="#f7c5b4"/>
      <path id="Path_6385" data-name="Path 6385" d="M415.371,294.133a.548.548,0,0,1,.316-.39.47.47,0,0,1,.484.133.808.808,0,0,1,.158.5,3.139,3.139,0,0,1-.044.739,1.083,1.083,0,0,1-.324.668.483.483,0,0,1-.676-.035A3.75,3.75,0,0,1,415.371,294.133Z" transform="translate(-375.546 -253.795)" fill="#f7c5b4"/>
      <path id="Path_6386" data-name="Path 6386" d="M399.207,284.127a4.556,4.556,0,0,1-.026,2.688,6.634,6.634,0,0,1-1.342,2.354c-.164.191-.418.392-.64.272a.546.546,0,0,1-.216-.3,4.846,4.846,0,0,1,.369-4.337,4.355,4.355,0,0,1,.968-2.993,4.21,4.21,0,0,1,2.782-1.352c1.129-.081,2.439.077,3.41-.5a1.1,1.1,0,0,1-.221.849,5.653,5.653,0,0,0,3.985-.176,6.184,6.184,0,0,1-.515,1.743,1.71,1.71,0,0,0,1.274.439,5.08,5.08,0,0,0,1.35-.3c-.19,1.12-.522,2.467-1.534,2.983a6.392,6.392,0,0,1-5.819-.108,1.768,1.768,0,0,0,.636.748,4.6,4.6,0,0,1-2.423-.542,10.453,10.453,0,0,1-2.047-1.45" transform="translate(-368.734 -248.753)" fill="#3c3c3b"/>
      <path id="Path_6387" data-name="Path 6387" d="M407.9,307.232a4.679,4.679,0,0,1-2.74,1.042,4.358,4.358,0,0,1-3.28-1.052s.416,2.056,3.112,2.036C407.6,309.238,407.9,307.232,407.9,307.232Z" transform="translate(-370.657 -258.739)" fill="#f7c5b4" style="mix-blend-mode: multiply;isolation: isolate"/>
      <path id="Path_6388" data-name="Path 6388" d="M402.376,295.733a.533.533,0,1,1-.541-.524A.532.532,0,0,1,402.376,295.733Z" transform="translate(-370.447 -254.339)" fill="#3c3c3b"/>
      <path id="Path_6389" data-name="Path 6389" d="M410,295.75a.533.533,0,1,0,.525-.541A.532.532,0,0,0,410,295.75Z" transform="translate(-373.629 -254.339)" fill="#3c3c3b"/>
      <path id="Path_6390" data-name="Path 6390" d="M408.363,293.993a1.3,1.3,0,0,1-.091-1.011.217.217,0,0,0,.316.014c.034-.037.055-.087.1-.112a.292.292,0,0,1,.118-.023,1.527,1.527,0,0,0,.5-.192,2.278,2.278,0,0,1,2.229.177c-.155.176-.424.171-.657.2-.91.1-1.489.852-2.4.98C408.476,294.022,408.386,294.036,408.363,293.993Z" transform="translate(-372.973 -253.331)" fill="#3c3c3b"/>
      <path id="Path_6391" data-name="Path 6391" d="M406.2,301.924a1.419,1.419,0,0,1-1.745-.866" transform="translate(-371.598 -256.481)" fill="none" stroke="#2e8e8b" stroke-linecap="round" stroke-linejoin="round" stroke-width="0.274"/>
      <path id="Path_6392" data-name="Path 6392" d="M414.46,288.8a4.966,4.966,0,0,0,.578,3.012c.059.106.138.222.259.238a.276.276,0,0,0,.256-.145.808.808,0,0,0,.089-.3,5.487,5.487,0,0,0-.1-3.16.513.513,0,0,0-.131-.194.409.409,0,0,0-.257-.079.723.723,0,0,0-.7.729" transform="translate(-375.248 -251.763)" fill="#3c3c3b"/>
      <path id="Path_6393" data-name="Path 6393" d="M406.256,295.788a8.646,8.646,0,0,0-.187,2.222.632.632,0,0,0,.039.221.431.431,0,0,0,.3.226,1.278,1.278,0,0,0,.384.017" transform="translate(-372.186 -254.551)" fill="none" stroke="#2e8e8b" stroke-linecap="round" stroke-linejoin="round" stroke-width="0.411"/>
      <path id="Path_6394" data-name="Path 6394" d="M403.2,294.022a1.293,1.293,0,0,0,.09-1.011.216.216,0,0,1-.315.014c-.034-.037-.056-.087-.1-.112a.294.294,0,0,0-.118-.023,1.546,1.546,0,0,1-.5-.192,2.277,2.277,0,0,0-2.228.177c.155.176.423.171.657.2.909.1,1.489.852,2.4.98C403.09,294.051,403.18,294.065,403.2,294.022Z" transform="translate(-369.98 -253.342)" fill="#3c3c3b"/>
      <g id="Group_2456" data-name="Group 2456" transform="translate(37.889 62.974)">
        <path id="Path_6395" data-name="Path 6395" d="M415.068,330.167c2.21.528,1.21,2.969,1.21,2.969a.7.7,0,0,1-.791.936.431.431,0,0,0-.242.565,2.452,2.452,0,0,1-.774.113,3.064,3.064,0,0,1-.828-.113.431.431,0,0,0-.242-.565.7.7,0,0,1-.791-.936s-.968-2.324,1.21-2.969A2.393,2.393,0,0,1,415.068,330.167Z" transform="translate(-412.396 -330.089)" fill="#fff"/>
        <path id="Path_6396" data-name="Path 6396" d="M416.06,333.4a.389.389,0,0,1,.26-.182.868.868,0,0,1,.328.017,3.119,3.119,0,0,1,.38.1.5.5,0,0,1,.252.147.439.439,0,0,1,.068.29.787.787,0,0,1-.094.355.475.475,0,0,1-.28.228.7.7,0,0,1-.6-.218.826.826,0,0,1-.342-.537A.692.692,0,0,1,416.06,333.4Z" transform="translate(-413.726 -331.231)" fill="#2e8e8b"/>
        <path id="Path_6397" data-name="Path 6397" d="M414.528,333.5a.389.389,0,0,0-.214-.235.871.871,0,0,0-.323-.055,3.39,3.39,0,0,0-.393.015.5.5,0,0,0-.277.089.438.438,0,0,0-.13.269.78.78,0,0,0,.013.367.476.476,0,0,0,.224.283.7.7,0,0,0,.636-.081.83.83,0,0,0,.451-.449A.68.68,0,0,0,414.528,333.5Z" transform="translate(-412.682 -331.231)" fill="#2e8e8b"/>
        <path id="Path_6398" data-name="Path 6398" d="M415.553,334.438a.231.231,0,0,1,.066.056,1.072,1.072,0,0,1,.176.4.164.164,0,0,1-.014.146.08.08,0,0,1-.089.01.345.345,0,0,0-.088-.035.216.216,0,0,0-.1.025.145.145,0,0,1-.157-.012.179.179,0,0,1-.044-.136.467.467,0,0,1,.036-.145,1.721,1.721,0,0,1,.114-.242S415.513,334.418,415.553,334.438Z" transform="translate(-413.46 -331.681)" fill="#2e8e8b"/>
      </g>
    </g>
    <g id="Group_2459" data-name="Group 2459" transform="translate(145.547 220.523)">
      <circle id="Ellipse_192" data-name="Ellipse 192" cx="11.079" cy="11.079" r="11.079" transform="translate(0 16.44) rotate(-47.897)" fill="#f8c218"/>
      <g id="Group_2458" data-name="Group 2458" transform="translate(13.266 7.779)">
        <path id="Path_6399" data-name="Path 6399" d="M214.4,299.258h-.184A1.4,1.4,0,0,1,212.829,298l-1-10.072a1.4,1.4,0,0,1,1.392-1.538h1.965a1.4,1.4,0,0,1,1.4,1.508l-.781,10.071A1.4,1.4,0,0,1,214.4,299.258Z" transform="translate(-211.821 -286.387)" fill="#fff"/>
        <path id="Path_6400" data-name="Path 6400" d="M216.223,309.349a1.525,1.525,0,1,1-1.525-1.525A1.525,1.525,0,0,1,216.223,309.349Z" transform="translate(-212.316 -294.239)" fill="#fff"/>
      </g>
    </g>
  </g>
</svg>
