<svg xmlns="http://www.w3.org/2000/svg" width="660.205" height="765.386" viewBox="0 0 660.205 765.386">
  <g id="Group_2058" data-name="Group 2058" transform="translate(-72.621 -50.997)">
    <g id="Group_2029" data-name="Group 2029" transform="translate(72.621 137.971)">
      <g id="Group_2028" data-name="Group 2028">
        <g id="Group_2023" data-name="Group 2023">
          <rect id="Rectangle_842" data-name="Rectangle 842" width="184.616" height="244.971" rx="5" fill="#b3e2df"/>
          <rect id="Rectangle_843" data-name="Rectangle 843" width="178.556" height="238.603" rx="5" transform="translate(2.749 2.73)" fill="#fff"/>
        </g>
        <g id="Group_2024" data-name="Group 2024" transform="translate(24.476 39.99)">
          <rect id="Rectangle_844" data-name="Rectangle 844" width="142.965" height="2.132" fill="#b3e2df"/>
          <rect id="Rectangle_845" data-name="Rectangle 845" width="142.965" height="2.132" transform="translate(0 8.401)" fill="#b3e2df"/>
          <rect id="Rectangle_846" data-name="Rectangle 846" width="142.965" height="2.132" transform="translate(0 16.463)" fill="#b3e2df"/>
          <rect id="Rectangle_847" data-name="Rectangle 847" width="75.286" height="2.132" transform="translate(0 24.465)" fill="#b3e2df"/>
        </g>
        <g id="Group_2025" data-name="Group 2025" transform="translate(24.476 82.035)">
          <rect id="Rectangle_848" data-name="Rectangle 848" width="142.965" height="2.132" fill="#b3e2df"/>
          <rect id="Rectangle_849" data-name="Rectangle 849" width="142.965" height="2.132" transform="translate(0 8.402)" fill="#b3e2df"/>
          <rect id="Rectangle_850" data-name="Rectangle 850" width="142.965" height="2.132" transform="translate(0 16.463)" fill="#b3e2df"/>
          <rect id="Rectangle_851" data-name="Rectangle 851" width="142.965" height="2.132" transform="translate(0 24.465)" fill="#b3e2df"/>
        </g>
        <g id="Group_2026" data-name="Group 2026" transform="translate(25.406 167.836)">
          <rect id="Rectangle_852" data-name="Rectangle 852" width="142.965" height="2.132" fill="#b3e2df"/>
          <rect id="Rectangle_853" data-name="Rectangle 853" width="142.965" height="2.132" transform="translate(0 8.402)" fill="#b3e2df"/>
          <rect id="Rectangle_854" data-name="Rectangle 854" width="142.965" height="2.132" transform="translate(0 16.463)" fill="#b3e2df"/>
          <rect id="Rectangle_855" data-name="Rectangle 855" width="142.965" height="2.132" transform="translate(0 24.465)" fill="#b3e2df"/>
        </g>
        <g id="Group_2027" data-name="Group 2027" transform="translate(24.476 125.369)">
          <rect id="Rectangle_856" data-name="Rectangle 856" width="142.965" height="2.132" fill="#b3e2df"/>
          <rect id="Rectangle_857" data-name="Rectangle 857" width="142.965" height="2.132" transform="translate(0 8.401)" fill="#b3e2df"/>
          <rect id="Rectangle_858" data-name="Rectangle 858" width="142.965" height="2.132" transform="translate(0 16.463)" fill="#b3e2df"/>
          <rect id="Rectangle_859" data-name="Rectangle 859" width="72.589" height="2.132" transform="translate(0 24.465)" fill="#b3e2df"/>
        </g>
        <circle id="Ellipse_178" data-name="Ellipse 178" cx="44.479" cy="44.479" r="44.479" transform="translate(42.025 151.13) rotate(-80.714)" fill="#f8c218"/>
        <path id="Path_4906" data-name="Path 4906" d="M133.817,142.854l26.838,34.091H145.059v23.574H122.574V177.308H106.979Z" transform="translate(-42.31 -57.386)" fill="#fff"/>
      </g>
    </g>
    <rect id="Rectangle_860" data-name="Rectangle 860" width="456.656" height="591.723" rx="15.24" transform="translate(190.191 177.793)" fill="#b3e2df"/>
    <rect id="Rectangle_861" data-name="Rectangle 861" width="415.598" height="526.423" rx="10.443" transform="translate(210.72 204.394)" fill="#fff"/>
    <path id="Path_4907" data-name="Path 4907" d="M275.134,427.936a10.066,10.066,0,1,1-10.066-10.064A10.066,10.066,0,0,1,275.134,427.936Z" transform="translate(160.901 323.213)" fill="#fff"/>
    <g id="Group_2032" data-name="Group 2032" transform="translate(260.747 234.952)">
      <g id="Group_2030" data-name="Group 2030" transform="translate(0)">
        <path id="Path_4908" data-name="Path 4908" d="M172.578,223.05h78.21s1.447-47.607-39.105-47.637C171.015,175.383,172.578,223.05,172.578,223.05Z" transform="translate(-172.57 -125.643)" fill="#47b7b7"/>
        <circle id="Ellipse_179" data-name="Ellipse 179" cx="20.619" cy="20.619" r="20.619" transform="translate(18.494)" fill="#47b7b7"/>
      </g>
      <g id="Group_2031" data-name="Group 2031" transform="translate(0 107.61)">
        <rect id="Rectangle_862" data-name="Rectangle 862" width="174.359" height="6.13" fill="#b3e2df"/>
        <rect id="Rectangle_863" data-name="Rectangle 863" width="174.359" height="6.13" transform="translate(0 14.902)" fill="#b3e2df"/>
        <rect id="Rectangle_864" data-name="Rectangle 864" width="174.359" height="6.13" transform="translate(0 30.612)" fill="#b3e2df"/>
        <rect id="Rectangle_865" data-name="Rectangle 865" width="174.359" height="6.13" transform="translate(0 47.396)" fill="#b3e2df"/>
      </g>
    </g>
    <g id="Group_2033" data-name="Group 2033" transform="translate(406.672 647.26)">
      <rect id="Rectangle_866" data-name="Rectangle 866" width="174.359" height="6.13" fill="#b3e2df"/>
      <rect id="Rectangle_867" data-name="Rectangle 867" width="174.359" height="6.13" transform="translate(0 14.901)" fill="#b3e2df"/>
      <rect id="Rectangle_868" data-name="Rectangle 868" width="174.359" height="6.13" transform="translate(0 30.612)" fill="#b3e2df"/>
      <rect id="Rectangle_869" data-name="Rectangle 869" width="174.359" height="6.13" transform="translate(0 47.396)" fill="#b3e2df"/>
    </g>
    <g id="Group_2035" data-name="Group 2035" transform="translate(319.607 417.704)">
      <path id="Path_4909" data-name="Path 4909" d="M304.719,246.064s-42.542,29.781-99.267,19.854c0,0-21.623,142.787,93.588,182.222,0,0,3.8,1.89,11.357,0,118.132-29.555,93.59-182.222,93.59-182.222-56.725,9.927-99.269-19.854-99.269-19.854" transform="translate(-203.841 -246.064)" fill="#47b7b7"/>
      <path id="Path_4910" data-name="Path 4910" d="M296.957,254.937s-35.538,24.879-82.925,16.586c0,0-18.064,119.282,78.182,152.225,0,0,3.175,1.579,9.488,0,98.685-24.689,78.182-152.225,78.182-152.225-47.387,8.293-82.927-16.586-82.927-16.586" transform="translate(-196.038 -238.236)" fill="#fff"/>
      <path id="Path_4911" data-name="Path 4911" d="M293.315,259.1s-32.254,22.577-75.257,15.05c0,0-16.392,108.251,70.95,138.146,0,0,2.882,1.434,8.611,0,89.558-22.4,70.952-138.146,70.952-138.146-43.005,7.527-75.257-15.05-75.257-15.05" transform="translate(-192.376 -234.562)" fill="#47b7b7"/>
      <path id="Path_4912" data-name="Path 4912" d="M291.511,403.6a18.829,18.829,0,0,1-3.787-.536c-82.5-19.818-66.4-126.352-66.4-126.352,39.589,6.544,69.036-14.484,69.036-14.484Z" transform="translate(-189.54 -231.8)" fill="#71ccc7"/>
      <g id="Group_2034" data-name="Group 2034" transform="translate(70.118 53.777)">
        <rect id="Rectangle_870" data-name="Rectangle 870" width="64.349" height="55.203" rx="5" transform="translate(0 33.423)" fill="#fff"/>
        <path id="Path_4913" data-name="Path 4913" d="M287.22,311.536s4.429-35.871-18.429-36.875c-13.315-.585-20.388,8.5-20.388,20.938" transform="translate(-234.646 -274.635)" fill="none" stroke="#fff" stroke-miterlimit="10" stroke-width="2.875"/>
        <path id="Path_4914" data-name="Path 4914" d="M272.056,309.036a9.442,9.442,0,1,0-14.169,8.165v10.486h9.148V317.376A9.437,9.437,0,0,0,272.056,309.036Z" transform="translate(-230.439 -252.616)" fill="#47b7b7"/>
      </g>
    </g>
    <g id="Group_2041" data-name="Group 2041" transform="translate(103.134 414.7)">
      <g id="Group_2037" data-name="Group 2037" transform="translate(27.719)">
        <circle id="Ellipse_180" data-name="Ellipse 180" cx="62.063" cy="62.063" r="62.063" transform="translate(11.07 7.28)" fill="#c7d4e2" style="mix-blend-mode: multiply;isolation: isolate"/>
        <circle id="Ellipse_181" data-name="Ellipse 181" cx="60.512" cy="60.512" r="60.512" transform="translate(0 119.492) rotate(-80.875)" fill="#f8c218"/>
        <g id="Group_2036" data-name="Group 2036" transform="translate(58.818 25.218)">
          <path id="Path_4915" data-name="Path 4915" d="M134.809,257.866l23.658.117-5.067,63.77H137.93Z" transform="translate(-134.808 -257.866)" fill="#fff"/>
          <path id="Path_4916" data-name="Path 4916" d="M153.828,304.713a9.518,9.518,0,1,1-8.944-10.059A9.517,9.517,0,0,1,153.828,304.713Z" transform="translate(-134.808 -225.425)" fill="#fff"/>
        </g>
      </g>
      <g id="Group_2040" data-name="Group 2040" transform="translate(0 2.769)">
        <g id="Group_2038" data-name="Group 2038">
          <line id="Line_40" data-name="Line 40" x1="22.537" transform="translate(0 64.86)" fill="none" stroke="#f8c218" stroke-miterlimit="10" stroke-width="2.161"/>
          <line id="Line_41" data-name="Line 41" x1="19.931" y1="10.52" transform="translate(6.946 28.599)" fill="none" stroke="#f8c218" stroke-miterlimit="10" stroke-width="2.161"/>
          <line id="Line_42" data-name="Line 42" x1="10.765" y1="19.799" transform="translate(34.957)" fill="none" stroke="#f8c218" stroke-miterlimit="10" stroke-width="2.161"/>
        </g>
        <g id="Group_2039" data-name="Group 2039" transform="translate(6.621 90.601)">
          <line id="Line_43" data-name="Line 43" x1="19.931" y2="10.52" fill="none" stroke="#f8c218" stroke-miterlimit="10" stroke-width="2.161"/>
          <line id="Line_44" data-name="Line 44" x1="10.766" y2="19.799" transform="translate(25.827 22.747)" fill="none" stroke="#f8c218" stroke-miterlimit="10" stroke-width="2.161"/>
        </g>
      </g>
    </g>
    <g id="Group_2043" data-name="Group 2043" transform="translate(428.768 51.511)">
      <path id="Path_4917" data-name="Path 4917" d="M472.592,52.578c-138.7,74.728-150.542,96.24-150.542,96.24-5.165-1.449-4.141-4.506-4.141-4.506,51.208-51.027,154.4-92.8,154.4-92.8S474.105,51.763,472.592,52.578Z" transform="translate(-212.442 -51.511)" fill="#fff" stroke="#fff" stroke-miterlimit="10" stroke-width="1"/>
      <path id="Path_4918" data-name="Path 4918" d="M406.233,52.115c10.044,78.594,6.311,183.045-13.234,259.83" transform="translate(-146.122 -50.978)" fill="none" stroke="#fff" stroke-miterlimit="10" stroke-width="1"/>
      <path id="Path_4919" data-name="Path 4919" d="M447.959,149.454H278.344a11.234,11.234,0,0,1-9.545-5.208c-5.387-8.6-8.542-21.015-6.155-29.673a32.587,32.587,0,0,1,22.412-22.331C283.379,75.707,296.1,59.36,312.3,55.638s34.04,4.587,42.828,18.692c1.536,2.466,3.106,5.314,5.9,6.121,2.7.781,5.472-.666,8.048-1.79a38.036,38.036,0,0,1,53.2,32.653,24.88,24.88,0,0,1,33.536,30.825S454.436,149.454,447.959,149.454Z" transform="translate(-261.837 -48.654)" fill="#fff"/>
      <g id="Group_2042" data-name="Group 2042" transform="translate(56.394 43.417)">
        <circle id="Ellipse_182" data-name="Ellipse 182" cx="33.4" cy="33.4" r="33.4" transform="translate(3.305 1.038)" fill="#b3e2df"/>
        <circle id="Ellipse_183" data-name="Ellipse 183" cx="33.401" cy="33.401" r="33.401" fill="#f8c218"/>
        <path id="Path_4920" data-name="Path 4920" d="M301.442,103.838l11.05,10.06,21.664-28.629" transform="translate(-283.29 -65.145)" fill="none" stroke="#fff" stroke-miterlimit="10" stroke-width="2.915"/>
      </g>
    </g>
    <g id="Group_2045" data-name="Group 2045" transform="translate(243.831 548.665)">
      <path id="Path_4921" data-name="Path 4921" d="M168.234,382.844l59.286-.113a9.489,9.489,0,0,0,9.311-9.486V324.966l-47.353.256v-6.656H168.234v64.278Z" transform="translate(-159.479 -313.063)" fill="#b3e2df"/>
      <rect id="Rectangle_871" data-name="Rectangle 871" width="40.828" height="46.395" transform="translate(18.844 0)" fill="#fff"/>
      <path id="Path_4922" data-name="Path 4922" d="M236.215,374.447l-.066-46.48H185.036v13.95H163.583v32.635" transform="translate(-163.583 -304.769)" fill="#47b7b7"/>
      <path id="Path_4923" data-name="Path 4923" d="M209.1,327.967v41.865a4.734,4.734,0,0,1-4.721,4.719h0a4.734,4.734,0,0,1-4.721-4.719V327.967Z" transform="translate(-131.752 -304.769)" fill="#b3e2df"/>
      <g id="Group_2044" data-name="Group 2044" transform="translate(21.703 6.896)">
        <rect id="Rectangle_872" data-name="Rectangle 872" width="35.11" height="1.234" fill="#b3e2df"/>
        <rect id="Rectangle_873" data-name="Rectangle 873" width="35.11" height="1.234" transform="translate(0 3.001)" fill="#b3e2df"/>
        <rect id="Rectangle_874" data-name="Rectangle 874" width="35.11" height="1.234" transform="translate(0 6.164)" fill="#b3e2df"/>
        <rect id="Rectangle_875" data-name="Rectangle 875" width="15.903" height="1.234" transform="translate(0 9.544)" fill="#b3e2df"/>
      </g>
    </g>
    <g id="Group_2047" data-name="Group 2047" transform="translate(243.705 636.38)">
      <path id="Path_4924" data-name="Path 4924" d="M168.167,429.446l59.286-.115a9.487,9.487,0,0,0,9.311-9.485V371.568l-47.353.256v-6.656H168.167v64.278Z" transform="translate(-159.412 -359.664)" fill="#b3e2df"/>
      <rect id="Rectangle_876" data-name="Rectangle 876" width="40.828" height="46.395" transform="translate(18.844)" fill="#fff"/>
      <path id="Path_4925" data-name="Path 4925" d="M236.148,421.049l-.066-46.48H184.968v13.95H163.515v32.635" transform="translate(-163.515 -351.371)" fill="#47b7b7"/>
      <path id="Path_4926" data-name="Path 4926" d="M209.037,374.568v41.865a4.734,4.734,0,0,1-4.721,4.721h0a4.734,4.734,0,0,1-4.721-4.721V374.568Z" transform="translate(-131.684 -351.371)" fill="#b3e2df"/>
      <g id="Group_2046" data-name="Group 2046" transform="translate(21.704 6.896)">
        <rect id="Rectangle_877" data-name="Rectangle 877" width="35.11" height="1.234" fill="#b3e2df"/>
        <rect id="Rectangle_878" data-name="Rectangle 878" width="35.11" height="1.234" transform="translate(0 3)" fill="#b3e2df"/>
        <rect id="Rectangle_879" data-name="Rectangle 879" width="35.11" height="1.234" transform="translate(0 6.164)" fill="#b3e2df"/>
        <rect id="Rectangle_880" data-name="Rectangle 880" width="15.903" height="1.234" transform="translate(0 9.544)" fill="#b3e2df"/>
      </g>
    </g>
    <g id="Group_2050" data-name="Group 2050" transform="translate(361.876 232.598)">
      <rect id="Rectangle_881" data-name="Rectangle 881" width="240.437" height="99.37" fill="none" stroke="#f8c218" stroke-miterlimit="10" stroke-width="0.5"/>
      <text id="PROFILE_INFORMATION" data-name="PROFILE INFORMATION" transform="translate(64.093 26.798)" fill="#b3e2df" font-size="13" font-family="SegoeUI, Segoe UI"><tspan x="0" y="0">PROFILE INFORMATION</tspan></text>
      <rect id="Rectangle_882" data-name="Rectangle 882" width="174.359" height="2.6" transform="translate(33.039 36.393)" fill="#b3e2df"/>
      <rect id="Rectangle_883" data-name="Rectangle 883" width="174.359" height="2.6" transform="translate(33.039 46.639)" fill="#b3e2df"/>
      <rect id="Rectangle_884" data-name="Rectangle 884" width="174.359" height="2.6" transform="translate(33.039 56.471)" fill="#b3e2df"/>
      <rect id="Rectangle_885" data-name="Rectangle 885" width="174.359" height="2.6" transform="translate(33.039 66.231)" fill="#b3e2df"/>
      <g id="Group_2049" data-name="Group 2049" transform="translate(193.391 11.099)">
        <circle id="Ellipse_184" data-name="Ellipse 184" cx="16.757" cy="16.757" r="16.757" fill="#f8c218"/>
        <g id="Group_2048" data-name="Group 2048" transform="translate(8.538 7.776)">
          <path id="Path_4927" data-name="Path 4927" d="M337.513,157.748l2.562,3.859c.668,1,1.225,1.931,1.816,2.932H342c.593-1.075,1.188-2,1.781-2.968l2.522-3.823h3.527l-6.123,8.685,6.307,9.276h-3.712l-2.633-4.045c-.7-1.037-1.3-2.04-1.929-3.115h-.073c-.595,1.075-1.225,2.04-1.894,3.115l-2.6,4.045h-3.6l6.383-9.165-6.087-8.8Z" transform="translate(-333.581 -157.748)" fill="#fff"/>
        </g>
      </g>
    </g>
    <g id="Group_2053" data-name="Group 2053" transform="translate(532.144 431.343)">
      <path id="Path_4928" data-name="Path 4928" d="M402.812,306.173l8.022,20H387.047l-2.677-5.191s.52-9.848,8.024-13.4S402.812,306.173,402.812,306.173Z" transform="translate(-257.111 -207.243)" fill="#f7c5b4"/>
      <path id="Path_4929" data-name="Path 4929" d="M334.574,306.173l-8.022,20h23.786l2.678-5.191s-.52-9.848-8.024-13.4S334.574,306.173,334.574,306.173Z" transform="translate(-308.12 -207.243)" fill="#f7c5b4"/>
      <path id="Path_4930" data-name="Path 4930" d="M433.483,427.612a240.351,240.351,0,0,0-13.861-84.081l-20.04,1.756c-23.315,1.6-48.172-1.756-48.172-1.756a240.439,240.439,0,0,0-13.861,84.081c.164,11.252-1.769,64.031,5,112.836h15.589l.813-8.818c1.771-34.334,7.73-70.574,15.749-104.044q3.775-15.531,8.367-30.844l2.449-8.148c2.993,9.959,7.887,27.189,10.618,38.158,8.118,33.7,14.77,70.26,16.556,104.878l.813,8.818h15.589C435.862,491.643,433.321,438.864,433.483,427.612Z" transform="translate(-298.537 -173.716)" fill="#47b7b7"/>
      <path id="Path_4931" data-name="Path 4931" d="M393.6,448.154c5.2,3.134,11.9,6.953,16.441,10.985,1.171,1.039,2.417,2.374,2.193,3.921-.239,1.643-2.016,2.573-3.633,2.949a28.756,28.756,0,0,1-7.779.361c-6.262-.277-12.654-.582-18.495-2.859a7.846,7.846,0,0,1-3.414-2.195c-1.3-1.639-1.312-3.926-1.259-6.019q.09-3.574.181-7.151" transform="translate(-263.048 -81.422)" fill="#0f1225"/>
      <path id="Path_4932" data-name="Path 4932" d="M348.889,448.154c-5.2,3.134-11.9,6.953-16.441,10.985-1.169,1.039-2.417,2.374-2.191,3.921.239,1.643,2.014,2.573,3.631,2.949a28.756,28.756,0,0,0,7.779.361c6.262-.277,12.656-.582,18.495-2.859a7.852,7.852,0,0,0,3.416-2.195c1.3-1.639,1.31-3.926,1.257-6.019q-.09-3.574-.179-7.151" transform="translate(-304.875 -81.422)" fill="#0f1225"/>
      <path id="Path_4933" data-name="Path 4933" d="M411.374,459.228a47.538,47.538,0,0,1-11.559.376c-5.675-.333-11.4-.736-16.846-2.381a11.468,11.468,0,0,1-3.335-1.472,6.355,6.355,0,0,1-1.628-1.865" transform="translate(-262.726 -76.358)" fill="none" stroke="#f8c417" stroke-linecap="round" stroke-linejoin="round" stroke-width="0.442"/>
      <path id="Path_4934" data-name="Path 4934" d="M330.53,458.948a47.534,47.534,0,0,0,11.559.376c5.677-.333,11.406-.736,16.848-2.381a11.48,11.48,0,0,0,3.333-1.472A5.635,5.635,0,0,0,363.5,454.2" transform="translate(-304.61 -76.078)" fill="none" stroke="#f8c417" stroke-linecap="round" stroke-linejoin="round" stroke-width="0.442"/>
      <path id="Path_4935" data-name="Path 4935" d="M375.723,344.227A24.282,24.282,0,0,0,391.246,362.9" transform="translate(-264.74 -173.102)" fill="none" stroke="#407cca" stroke-linecap="round" stroke-linejoin="round" stroke-width="0.589"/>
      <path id="Path_4936" data-name="Path 4936" d="M357.723,344.227A24.285,24.285,0,0,1,342.2,362.9" transform="translate(-294.315 -173.102)" fill="none" stroke="#407cca" stroke-linecap="round" stroke-linejoin="round" stroke-width="0.589"/>
      <path id="Path_4937" data-name="Path 4937" d="M353.221,324.885s-2.865,9.174-3.943,11.451l-1.946-2.394c-3.241-3.725-12.515-9.49-16.5-12.413,12.106-30.151,19.276-28.907,25.939-30.215,3.508-.691,7.612-1.4,11.162-1.944,22.419-3.448,56.169,1.869,56.169,1.869,6.663,1.31,13.832.066,25.939,30.217-3.983,2.921-13.255,8.686-16.5,12.413l-1.944,2.392c-1.078-2.276-3.943-11.45-3.943-11.45l-.049,2.212c-.467,21.408-.887,40.6-1.353,62.01-.03,1.367-.216,3-1.432,3.62,0,0-10.685,2.046-35.939,2.046,0,0-31.426-.169-32.593-2.882a6.759,6.759,0,0,1-.531-2.364q-.33-7.329-.663-14.655-.432-9.554-.866-19.106C353.7,343.863,353.221,324.885,353.221,324.885Z" transform="translate(-304.342 -222.525)" fill="#47b7b7"/>
      <path id="Path_4938" data-name="Path 4938" d="M383.715,277.741q.7,5.579,1.4,11.16a17.162,17.162,0,0,0,1.011,4.909c1.026,1.948,9.532,5.131,11.2,6.061,0,0-6.669,5.807-23.842,6.486s-22.935-7.16-22.935-7.16c1.668-.932,10.173-4.115,11.2-6.063a17.146,17.146,0,0,0,1.011-4.909q.7-5.579,1.4-11.158" transform="translate(-286.953 -232.352)" fill="#f7c5b4"/>
      <path id="Path_4939" data-name="Path 4939" d="M389.43,266.132c1.374,7.44-.582,22.414-2.178,28.329a18.443,18.443,0,0,1-2.895,6.842c-7.651,9.639-17.851,6.593-21.2,4.389a15.617,15.617,0,0,1-5.938-7.009,50.194,50.194,0,0,1-3.668-23.584s-.888-20.887,20.473-20.887C374.02,254.212,387.135,253.71,389.43,266.132Z" transform="translate(-284.468 -252.517)" fill="#f7c5b4"/>
      <path id="Path_4940" data-name="Path 4940" d="M355.267,274.793a1.542,1.542,0,0,1-2.155.141,3.467,3.467,0,0,1-1.067-2.116,9.993,9.993,0,0,1-.177-2.357,2.587,2.587,0,0,1,.482-1.594,1.462,1.462,0,0,1,2.562.781Z" transform="translate(-285.794 -240.033)" fill="#f7c5b4"/>
      <path id="Path_4941" data-name="Path 4941" d="M372.256,270.129c.175-.536.527-1.6,1.067-1.762a2.378,2.378,0,0,1,1.98.506,2.576,2.576,0,0,1,.482,1.594,10.1,10.1,0,0,1-.175,2.356,3.469,3.469,0,0,1-1.069,2.118,1.539,1.539,0,0,1-2.153-.143A7.08,7.08,0,0,1,372.256,270.129Z" transform="translate(-268.094 -240.073)" fill="#f7c5b4"/>
      <path id="Path_4942" data-name="Path 4942" d="M360.71,265.738a14.55,14.55,0,0,1-.211,8.575,21.153,21.153,0,0,1-4.391,7.45c-.533.6-1.355,1.231-2.057.839a1.75,1.75,0,0,1-.676-.954,15.471,15.471,0,0,1,1.384-13.821c-.028-3.373.928-7.045,3.232-9.507a13.444,13.444,0,0,1,8.942-4.184c1.636-.092,3.134-.777,4.762-.615a33.794,33.794,0,0,0,3.874.593,40.123,40.123,0,0,0,4.013-.757,6.913,6.913,0,0,1,6.151,2.549,4.924,4.924,0,0,0,3.725,2.756c2.338.847,4.35,2.718,4.342,5.554v.647c.008,9.84-9.7,8.009-12.846,6.895a52.379,52.379,0,0,1-9.579-4.532c-.439.375-.169,1.09-.294,1.653a1.554,1.554,0,0,1-1.257,1.08,4.582,4.582,0,0,1-1.741-.109,18.178,18.178,0,0,1-4.348-1.218,5.516,5.516,0,0,1-3.025-2.893" transform="translate(-285.36 -253.311)" fill="#3c3c3b"/>
      <path id="Path_4943" data-name="Path 4943" d="M377.859,280.931s-2.985,3.2-9.3,3.716a14.724,14.724,0,0,1-11.019-3.716s1.3,6.962,10.4,7.028C376.729,288.023,377.859,280.931,377.859,280.931Z" transform="translate(-280.783 -228.943)" fill="#f7c5b4" style="mix-blend-mode: multiply;isolation: isolate"/>
      <path id="Path_4944" data-name="Path 4944" d="M371.638,263.87a15.864,15.864,0,0,0,1.7,9.641c.183.343.431.715.817.77a.885.885,0,0,0,.824-.45,2.587,2.587,0,0,0,.3-.941c.6-3.362,1.186-6.959-.184-10.089a1.65,1.65,0,0,0-.41-.627,1.3,1.3,0,0,0-.815-.262,2.308,2.308,0,0,0-2.261,2.293" transform="translate(-268.48 -245.722)" fill="#3c3c3b"/>
      <path id="Path_4945" data-name="Path 4945" d="M412.457,343.843s-21.036,2.505-34.385,2.046-29.1-.469-33.221-2.358C344.851,343.531,374.656,354.177,412.457,343.843Z" transform="translate(-291.976 -173.716)" fill="#47b7b7" opacity="0.48" style="mix-blend-mode: multiply;isolation: isolate"/>
      <path id="Path_4946" data-name="Path 4946" d="M360.489,271.975a1.773,1.773,0,1,1-1.773-1.773A1.774,1.774,0,0,1,360.489,271.975Z" transform="translate(-281.308 -238.408)" fill="#3c3c3b"/>
      <path id="Path_4947" data-name="Path 4947" d="M366.728,271.96a1.773,1.773,0,1,0,1.773-1.773A1.774,1.774,0,0,0,366.728,271.96Z" transform="translate(-272.676 -238.422)" fill="#3c3c3b"/>
      <path id="Path_4948" data-name="Path 4948" d="M363.153,270.633a50.306,50.306,0,0,0-.945,6.706,1.288,1.288,0,0,0,.19.772,2.513,2.513,0,0,0,1.7.681" transform="translate(-276.663 -238.028)" fill="none" stroke="#da806c" stroke-linecap="round" stroke-linejoin="round" stroke-width="0.47"/>
      <path id="Path_4949" data-name="Path 4949" d="M367.846,276.048a6.915,6.915,0,0,1-5.722,2.665" transform="translate(-276.737 -233.251)" fill="none" stroke="#da806c" stroke-linecap="round" stroke-linejoin="round" stroke-width="0.543"/>
      <path id="Path_4950" data-name="Path 4950" d="M364.4,272.334a2.578,2.578,0,0,0-.48-2.746l-.213.228q-.274-.288-.551-.576l-.271.175a8.521,8.521,0,0,0-4.839-1.845,2.775,2.775,0,0,0-2.118.574.975.975,0,0,0,.563.3,13.283,13.283,0,0,1,7.657,3.956S364.334,272.5,364.4,272.334Z" transform="translate(-282.2 -240.738)" fill="#3c3c3b"/>
      <path id="Path_4951" data-name="Path 4951" d="M364.941,272.342a2.575,2.575,0,0,1,.482-2.746l.211.228.551-.576.273.175a8.511,8.511,0,0,1,4.839-1.845,2.777,2.777,0,0,1,2.117.574.98.98,0,0,1-.563.3,13.3,13.3,0,0,0-7.659,3.956S365.01,272.511,364.941,272.342Z" transform="translate(-274.427 -240.731)" fill="#3c3c3b"/>
      <g id="Group_2051" data-name="Group 2051" transform="translate(4.208 118.927)">
        <rect id="Rectangle_886" data-name="Rectangle 886" width="164.938" height="93.593" rx="5" fill="#f8c218"/>
        <rect id="Rectangle_887" data-name="Rectangle 887" width="164.938" height="17.329" transform="translate(0 14.112)" fill="#fff"/>
        <rect id="Rectangle_888" data-name="Rectangle 888" width="50.839" height="9.961" transform="translate(4.126 36.836)" fill="#fff"/>
        <rect id="Rectangle_889" data-name="Rectangle 889" width="24.252" height="9.961" transform="translate(61.856 36.836)" fill="#fff"/>
      </g>
      <path id="Path_4952" data-name="Path 4952" d="M415.47,354.659l.026,0-3.646-15.95v15.331l.008,0v2.242c-1.939-.659-4.1-1.634-6.038-2.293-.947-.324-2.2-.553-2.767.267-.629.905.25,2.095,1.137,2.748a14.187,14.187,0,0,0,3.055,1.711l-4.429-.79a1.548,1.548,0,0,0-1.1.075c-.711.45-.239,1.574.386,2.138a7.157,7.157,0,0,0,3.766,1.76,17.674,17.674,0,0,0-3.413.028,2.365,2.365,0,0,0-1.146.343c-.849.617-.531,2.072.331,2.673a5.016,5.016,0,0,0,3.044.563c-.821.356-1.764.318-2.609.614s-1.634,1.184-1.3,2.014a2.138,2.138,0,0,0,1.634,1.018,26.358,26.358,0,0,0,5.1.663,8.533,8.533,0,0,0,4.546-.834c1.814-1.041,2.8-3.089,3.364-5.1A18.006,18.006,0,0,0,415.47,354.659Z" transform="translate(-242.703 -177.966)" fill="#f7c5b4"/>
      <path id="Path_4953" data-name="Path 4953" d="M330.729,366.209c-.845-.3-1.788-.258-2.609-.614a5.015,5.015,0,0,0,3.043-.563c.862-.6,1.18-2.055.331-2.673a2.366,2.366,0,0,0-1.144-.343,17.7,17.7,0,0,0-3.414-.026,7.173,7.173,0,0,0,3.766-1.762c.625-.565,1.1-1.688.386-2.138a1.547,1.547,0,0,0-1.1-.075l-4.429.791a14.113,14.113,0,0,0,3.055-1.711c.887-.653,1.766-1.843,1.137-2.748-.568-.821-1.82-.589-2.767-.269-1.937.661-4.1,1.636-6.038,2.295v-2.242l.008,0V338.8l-3.646,15.95.026,0a18.008,18.008,0,0,0,.043,9.225c.561,2.012,1.549,4.06,3.364,5.1a8.552,8.552,0,0,0,4.546.836,26.505,26.505,0,0,0,5.1-.664,2.138,2.138,0,0,0,1.634-1.018C332.364,367.393,331.574,366.5,330.729,366.209Z" transform="translate(-316.759 -177.891)" fill="#f7c5b4"/>
      <g id="Group_2052" data-name="Group 2052" transform="translate(98.607 94.641)">
        <path id="Path_4954" data-name="Path 4954" d="M378.021,303.854c7.337,1.754,4.019,9.859,4.019,9.859a2.323,2.323,0,0,1-2.626,3.108,1.431,1.431,0,0,0-.8,1.875,8.137,8.137,0,0,1-2.571.375,10.171,10.171,0,0,1-2.75-.375,1.431,1.431,0,0,0-.8-1.875s-3.337.384-2.626-3.108c0,0-3.215-7.717,4.019-9.859A7.943,7.943,0,0,1,378.021,303.854Z" transform="translate(-369.148 -303.592)" fill="#fff"/>
        <path id="Path_4955" data-name="Path 4955" d="M373.313,307.716a1.3,1.3,0,0,1,.864-.606,2.867,2.867,0,0,1,1.088.056,11.217,11.217,0,0,1,1.263.329,1.655,1.655,0,0,1,.834.489,1.455,1.455,0,0,1,.226.966,2.59,2.59,0,0,1-.309,1.178,1.582,1.582,0,0,1-.932.757,2.336,2.336,0,0,1-2-.725,2.746,2.746,0,0,1-1.135-1.781A2.3,2.3,0,0,1,373.313,307.716Z" transform="translate(-365.566 -300.516)" fill="#47b7b7"/>
        <path id="Path_4956" data-name="Path 4956" d="M374.512,308.043a1.3,1.3,0,0,0-.711-.779,2.891,2.891,0,0,0-1.075-.183,11.139,11.139,0,0,0-1.3.047,1.654,1.654,0,0,0-.922.3,1.464,1.464,0,0,0-.431.892,2.61,2.61,0,0,0,.045,1.218,1.581,1.581,0,0,0,.743.941,2.34,2.34,0,0,0,2.114-.269,2.753,2.753,0,0,0,1.5-1.493A2.252,2.252,0,0,0,374.512,308.043Z" transform="translate(-368.379 -300.516)" fill="#47b7b7"/>
        <path id="Path_4957" data-name="Path 4957" d="M373.232,308.462a.729.729,0,0,1,.216.188,3.532,3.532,0,0,1,.587,1.319.553.553,0,0,1-.049.484.261.261,0,0,1-.294.03,1.276,1.276,0,0,0-.292-.117.735.735,0,0,0-.339.085.476.476,0,0,1-.521-.039.605.605,0,0,1-.145-.452,1.546,1.546,0,0,1,.119-.482,5.721,5.721,0,0,1,.38-.8S373.1,308.394,373.232,308.462Z" transform="translate(-366.283 -299.305)" fill="#47b7b7"/>
      </g>
    </g>
    <g id="Group_2057" data-name="Group 2057" transform="translate(485.161 308.03)">
      <path id="Path_4958" data-name="Path 4958" d="M521.291,189.8H310.326a15.5,15.5,0,0,0-15.5,15.5v72.245a15.5,15.5,0,0,0,15.5,15.5H521.291a15.5,15.5,0,0,0,15.5-15.5V205.3A15.5,15.5,0,0,0,521.291,189.8Z" transform="translate(-289.13 -186.032)" fill="#b3e2df" style="mix-blend-mode: multiply;isolation: isolate"/>
      <g id="Group_2056" data-name="Group 2056">
        <g id="Group_2054" data-name="Group 2054">
          <path id="Path_4959" data-name="Path 4959" d="M533.769,216.547V203.3a15.5,15.5,0,0,0-15.5-15.5H307.3a15.5,15.5,0,0,0-15.5,15.5v13.249Z" transform="translate(-291.798 -187.796)" fill="#47b7b7"/>
          <path id="Path_4960" data-name="Path 4960" d="M291.8,203.071v59a15.5,15.5,0,0,0,15.5,15.5H518.267a15.5,15.5,0,0,0,15.5-15.5v-59Z" transform="translate(-291.798 -174.32)" fill="#fff"/>
        </g>
        <g id="Group_2055" data-name="Group 2055" transform="translate(51.485 57.555)">
          <path id="Path_4961" data-name="Path 4961" d="M326.638,218.374h4.235l-.636,7.224,5.98-4.551,2.144,3.678-6.8,3.333,6.8,3.52-2.144,3.7-5.98-4.709.636,7.356h-4.235l.794-7.487-6.006,4.657-2.116-3.7,6.614-3.335-6.774-3.147,2.144-3.678,6.112,4.444Z" transform="translate(-319.151 -218.374)" fill="#b3e2df"/>
          <path id="Path_4962" data-name="Path 4962" d="M343.014,218.374h4.233l-.636,7.224,5.98-4.551,2.144,3.678-6.8,3.333,6.8,3.52-2.144,3.7-5.98-4.709.636,7.356h-4.233l.792-7.487L337.8,235.1l-2.116-3.7,6.614-3.335-6.774-3.147,2.144-3.678,6.112,4.444Z" transform="translate(-304.705 -218.374)" fill="#b3e2df"/>
          <path id="Path_4963" data-name="Path 4963" d="M359.387,218.374h4.233l-.636,7.224,5.98-4.551,2.144,3.678-6.8,3.333,6.8,3.52-2.144,3.7-5.98-4.709.636,7.356h-4.233l.792-7.487-6.006,4.657-2.116-3.7,6.614-3.335-6.774-3.147,2.144-3.678,6.112,4.444Z" transform="translate(-290.261 -218.374)" fill="#b3e2df"/>
          <path id="Path_4964" data-name="Path 4964" d="M375.761,218.374h4.233l-.636,7.224,5.98-4.551,2.144,3.678-6.8,3.333,6.8,3.52-2.144,3.7-5.98-4.709.636,7.356h-4.233l.792-7.487-6.006,4.657-2.116-3.7,6.614-3.335-6.774-3.147,2.144-3.678,6.112,4.444Z" transform="translate(-275.815 -218.374)" fill="#b3e2df"/>
          <path id="Path_4965" data-name="Path 4965" d="M392.135,218.374h4.233l-.636,7.224,5.98-4.551,2.144,3.678-6.8,3.333,6.8,3.52-2.144,3.7-5.98-4.709.636,7.356h-4.233l.792-7.487-6.006,4.657-2.116-3.7,6.614-3.335-6.774-3.147,2.144-3.678,6.112,4.444Z" transform="translate(-261.37 -218.374)" fill="#b3e2df"/>
        </g>
        <text id="LOGIN" transform="translate(104.677 20.376)" fill="#fff" font-size="14" font-family="SegoeUI, Segoe UI"><tspan x="0" y="0">LOGIN</tspan></text>
      </g>
    </g>
  </g>
</svg>
