<svg xmlns="http://www.w3.org/2000/svg" xmlns:xlink="http://www.w3.org/1999/xlink" width="1092.484" height="912.062" viewBox="0 0 1092.484 912.062">
  <defs>
    <linearGradient id="linear-gradient" x1="0.715" y1="1.239" x2="1.684" gradientUnits="objectBoundingBox">
      <stop offset="0" stop-color="#49c7ba"/>
      <stop offset="1" stop-color="#017878"/>
    </linearGradient>
  </defs>
  <g id="Group_3218" data-name="Group 3218" transform="translate(-828.18 1.319)">
    <path id="Path_4894" data-name="Path 4894" d="M778.97,0s-48.776,196.8,240.859,290.254c59.412,21.661,121.3,35.276,132.44,129.346,1.857,15.472,24.136,83.549,27.231,93.451s16.71,60.65,19.185,72.409,23.517,93.451,129.346,139.248c45.8,12.378,101.5,25.374,121.3,29.087s96.545,9.283,107.685,11.14,102.734,4.456,143.023,37.875c24.879,19.309,30.077,24.508,39.175,31.934s71.032,68.407,129.144,77.318V30Z" transform="translate(52.306 -1.319)" fill="#f8c218"/>
    <path id="Path_1" data-name="Path 1" d="M778.97,0s-48.776,196.8,240.859,290.254c59.412,21.661,121.3,35.276,132.44,129.346,1.857,15.472,24.136,83.549,27.231,93.451s16.71,60.65,19.185,72.409,23.517,93.451,129.346,139.248c45.8,12.378,101.5,25.374,121.3,29.087s96.545,9.283,107.685,11.14,102.734,4.456,143.023,37.875c24.879,19.309,30.077,24.508,39.175,31.934s41.032,28.407,99.144,37.318V0Z" transform="translate(82.306 -0.319)" fill="url(#linear-gradient)"/>
  </g>
</svg>
