<svg xmlns="http://www.w3.org/2000/svg" width="117.814" height="80.448" viewBox="0 0 117.814 80.448">
  <g id="logobottom3" transform="translate(-1431.342 -1542.177)">
    <g id="Group_547" data-name="Group 547" transform="translate(1431.342 1602.556)">
      <path id="Path_762" data-name="Path 762" d="M-114.658-27.656v-1.768h6.057v1.768l-1.567.3v10.5l1.567.3V-14.8h-6.057v-1.758l1.567-.3v-10.5Zm7.082,11.1,1.406-.3V-23.6l-1.557-.3v-1.768h4.289l.131,1.557a3.975,3.975,0,0,1,1.337-1.3,3.468,3.468,0,0,1,1.778-.463,3.27,3.27,0,0,1,2.572,1.035,4.772,4.772,0,0,1,.926,3.245v4.734l1.4.3V-14.8H-100.9v-1.758l1.255-.3v-4.721a2.2,2.2,0,0,0-.442-1.552,1.78,1.78,0,0,0-1.337-.457,2.263,2.263,0,0,0-1.045.236,2.147,2.147,0,0,0-.771.669v5.826l1.183.3V-14.8h-5.525Zm17.549-11.773v2.662h1.909v2.057h-1.909v5.537a1.279,1.279,0,0,0,.261.9.931.931,0,0,0,.7.271,4.842,4.842,0,0,0,.527-.025q.226-.025.507-.085l.251,2.12a7.042,7.042,0,0,1-.975.226,6.78,6.78,0,0,1-1.044.076,3.126,3.126,0,0,1-2.336-.834,3.656,3.656,0,0,1-.819-2.642v-5.545h-1.6v-2.057h1.6v-2.662Zm8.549,13.742a4.894,4.894,0,0,1-3.755-1.507,5.388,5.388,0,0,1-1.406-3.827v-.4a5.946,5.946,0,0,1,1.327-3.99,4.419,4.419,0,0,1,3.571-1.557,4.4,4.4,0,0,1,3.416,1.326,5.1,5.1,0,0,1,1.215,3.586v1.6H-83.6l-.02.06a2.837,2.837,0,0,0,.72,1.768,2.239,2.239,0,0,0,1.733.693,5.643,5.643,0,0,0,1.614-.194,7.434,7.434,0,0,0,1.406-.617l.794,1.808a5.774,5.774,0,0,1-1.741.893,7.419,7.419,0,0,1-2.385.362Zm-.261-9.021a1.527,1.527,0,0,0-1.286.623,3.24,3.24,0,0,0-.583,1.638l.03.051h3.6v-.261a2.353,2.353,0,0,0-.437-1.492A1.575,1.575,0,0,0-81.739-23.607Zm6.2,3.466a7.015,7.015,0,0,1,1.12-4.149,3.63,3.63,0,0,1,3.137-1.577,3.116,3.116,0,0,1,1.607.407,3.589,3.589,0,0,1,1.183,1.16l.211-1.366h2.552v10.547a4.5,4.5,0,0,1-1.351,3.431,5.177,5.177,0,0,1-3.712,1.281,7.368,7.368,0,0,1-1.749-.226,8.117,8.117,0,0,1-1.708-.617l.543-2.057a9.287,9.287,0,0,0,1.406.477,6.111,6.111,0,0,0,1.492.173,1.954,1.954,0,0,0,1.607-.653,2.8,2.8,0,0,0,.53-1.818v-.713a3.281,3.281,0,0,1-1.135.934,3.346,3.346,0,0,1-1.5.321,3.7,3.7,0,0,1-3.119-1.471,6.227,6.227,0,0,1-1.119-3.872Zm2.932.211a4.427,4.427,0,0,0,.482,2.245,1.679,1.679,0,0,0,1.567.819,2.421,2.421,0,0,0,1.139-.245,1.88,1.88,0,0,0,.748-.72v-4.721a2.024,2.024,0,0,0-.748-.762,2.194,2.194,0,0,0-1.12-.271,1.656,1.656,0,0,0-1.572.954,5.393,5.393,0,0,0-.5,2.491Zm8.86,3.375,1.406-.3V-23.6l-1.557-.3v-1.768h4.289l.131,1.587a3.421,3.421,0,0,1,.984-1.316,2.2,2.2,0,0,1,1.4-.472,3.588,3.588,0,0,1,.487.035,2.983,2.983,0,0,1,.427.085l-.311,2.674L-57.7-23.1a2.054,2.054,0,0,0-1.065.251,1.623,1.623,0,0,0-.643.713v5.284l1.406.3V-14.8h-5.747ZM-48.589-14.8a5.305,5.305,0,0,1-.211-.558,4.4,4.4,0,0,1-.14-.578,4.035,4.035,0,0,1-1.271.975,3.8,3.8,0,0,1-1.713.371,3.588,3.588,0,0,1-2.536-.869,3.065,3.065,0,0,1-.939-2.366,2.69,2.69,0,0,1,1.226-2.361,6.4,6.4,0,0,1,3.6-.834h1.5V-22.08a1.6,1.6,0,0,0-.452-1.215,1.864,1.864,0,0,0-1.337-.432,3.164,3.164,0,0,0-.894.116,2.339,2.339,0,0,0-.63.277l-.191,1.165H-54.8l.01-2.411a8.232,8.232,0,0,1,1.843-.915,6.686,6.686,0,0,1,2.263-.372,5.157,5.157,0,0,1,3.282.989,3.372,3.372,0,0,1,1.261,2.818v4.49q0,.251.005.472a3.36,3.36,0,0,0,.035.422l.894.12V-14.8Zm-2.542-1.959a2.542,2.542,0,0,0,1.205-.286,2.328,2.328,0,0,0,.844-.72v-1.656h-1.5a2.044,2.044,0,0,0-1.416.437,1.368,1.368,0,0,0-.482,1.049,1.087,1.087,0,0,0,.356.864A1.454,1.454,0,0,0-51.131-16.757Zm10.447-11.572v2.662h1.909v2.057h-1.909v5.537a1.279,1.279,0,0,0,.261.9.931.931,0,0,0,.7.271,4.841,4.841,0,0,0,.527-.025q.226-.025.507-.085l.251,2.12a7.042,7.042,0,0,1-.974.226,6.78,6.78,0,0,1-1.045.075,3.126,3.126,0,0,1-2.336-.834,3.656,3.656,0,0,1-.819-2.642v-5.545h-1.6v-2.057h1.6v-2.662Zm3.256,11.773,1.415-.3V-23.6l-1.567-.3v-1.768h4.5v8.814l1.406.3V-14.8h-5.755Zm4.35-11.713H-36.01v-2.2h2.932Zm2.371,7.936a5.82,5.82,0,0,1,1.361-3.983,4.743,4.743,0,0,1,3.762-1.552,4.762,4.762,0,0,1,3.772,1.547,5.815,5.815,0,0,1,1.361,3.988v.211a5.812,5.812,0,0,1-1.361,3.993,4.745,4.745,0,0,1-3.752,1.543,4.783,4.783,0,0,1-3.782-1.543,5.812,5.812,0,0,1-1.361-3.993Zm2.932.211a4.729,4.729,0,0,0,.523,2.386,1.8,1.8,0,0,0,1.687.9,1.786,1.786,0,0,0,1.665-.9,4.7,4.7,0,0,0,.527-2.381v-.211a4.649,4.649,0,0,0-.532-2.361,1.8,1.8,0,0,0-1.678-.914,1.779,1.779,0,0,0-1.667.914,4.722,4.722,0,0,0-.523,2.361Zm8.439,3.566,1.406-.3V-23.6l-1.557-.3v-1.768H-15.2l.131,1.557a3.975,3.975,0,0,1,1.337-1.3,3.468,3.468,0,0,1,1.778-.463,3.27,3.27,0,0,1,2.572,1.035,4.772,4.772,0,0,1,.926,3.245v4.736l1.406.3V-14.8h-5.606v-1.758l1.252-.3v-4.721a2.2,2.2,0,0,0-.442-1.552,1.78,1.78,0,0,0-1.337-.457,2.263,2.263,0,0,0-1.045.236,2.147,2.147,0,0,0-.771.669v5.826l1.183.3V-14.8h-5.522ZM2.752-21.93H.783L.472-23.286a2.572,2.572,0,0,0-.759-.4,3.026,3.026,0,0,0-1.01-.16,1.966,1.966,0,0,0-1.226.347,1.054,1.054,0,0,0-.452.869.989.989,0,0,0,.432.819,4.624,4.624,0,0,0,1.728.578,7.033,7.033,0,0,1,2.993,1.18,2.594,2.594,0,0,1,.975,2.145,2.852,2.852,0,0,1-1.261,2.394,5.464,5.464,0,0,1-3.319.931,6.95,6.95,0,0,1-2.306-.365A5.889,5.889,0,0,1-5.6-16l-.03-2.443h2.049l.4,1.416a1.68,1.68,0,0,0,.713.327,4.143,4.143,0,0,0,.944.105,2.4,2.4,0,0,0,1.361-.321,1.008,1.008,0,0,0,.467-.874,1.022,1.022,0,0,0-.472-.834A4.82,4.82,0,0,0-1.9-19.248a6.967,6.967,0,0,1-2.9-1.16A2.52,2.52,0,0,1-5.775-22.5a3.039,3.039,0,0,1,1.125-2.356,4.7,4.7,0,0,1,3.2-.99,8.239,8.239,0,0,1,2.4.342,5.062,5.062,0,0,1,1.773.874Z" transform="translate(114.658 30.468)" fill="#0f1225"/>
    </g>
    <g id="Group_548" data-name="Group 548" transform="translate(1462.026 1542.177)">
      <path id="Path_763" data-name="Path 763" d="M212.555,304a4.555,4.555,0,1,0,4.555,4.555A4.555,4.555,0,0,0,212.555,304Zm0,7.288a2.733,2.733,0,1,1,2.733-2.733A2.733,2.733,0,0,1,212.555,311.288Zm0,0" transform="translate(-184.313 -269.38)" fill="#f8c417"/>
      <path id="Path_764" data-name="Path 764" d="M240,32h7.288v1.822H240Zm0,0" transform="translate(-212.669 -28.356)" fill="#f8c417"/>
      <path id="Path_765" data-name="Path 765" d="M240,64h7.288v1.822H240Zm0,0" transform="translate(-212.669 -56.712)" fill="#f8c417"/>
      <path id="Path_766" data-name="Path 766" d="M192,96h12.755v1.822H192Zm0,0" transform="translate(-170.135 -85.068)" fill="#f8c417"/>
      <path id="Path_767" data-name="Path 767" d="M192,128h12.755v1.822H192Zm0,0" transform="translate(-170.135 -113.423)" fill="#f8c417"/>
      <path id="Path_768" data-name="Path 768" d="M192,160h12.755v1.822H192Zm0,0" transform="translate(-170.135 -141.779)" fill="#f8c417"/>
      <path id="Path_769" data-name="Path 769" d="M56.484,29.153V21.865H43.729v7.288H49.2v9.112H38.266V36.7l-2.238-.745,1.054-2.109-3.506-3.506-2.109,1.055-.745-2.238H29.153V23.687h9.112V12.755H49.2v5.089l-2.089-2.089-1.286,1.286,4.288,4.288L54.4,17.041l-1.286-1.286-2.092,2.088V10.932H38.266V0H24.225l-6,6v4.932H5.466v6.911L3.377,15.755,2.091,17.041l4.286,4.29,4.288-4.288L9.38,15.757,7.291,17.846V12.755h10.93V23.687h9.11v5.466H25.763l-.745,2.238-2.109-1.055L19.4,33.842l1.054,2.109-2.237.746v1.569H7.288V29.153h5.467V21.865H0v7.288H5.466V43.859a3.644,3.644,0,1,0,1.822,0V40.086h5.467v11.1a2.733,2.733,0,1,0,1.822,0v-11.1h3.644v1.568l2.237.746L19.4,44.508l3.506,3.506,2.109-1.055.745,2.238h4.957l.745-2.239,2.109,1.055,3.508-3.505L36.028,42.4l2.238-.746V40.086H41.91v11.1a2.733,2.733,0,1,0,1.822,0v-11.1H49.2v3.774a3.644,3.644,0,1,0,1.822,0V29.153ZM23.687,3.11V5.466H21.331ZM20.043,7.288H25.51V1.822H36.442V21.865h-16.4ZM1.822,23.687h9.11v3.644H1.822ZM8.2,47.374a1.822,1.822,0,1,1-1.822-1.822A1.822,1.822,0,0,1,8.2,47.374Zm5.466,7.288a.911.911,0,1,1,.911-.911.911.911,0,0,1-.911.911ZM36.442,40.34l-2.09.7-.154.4c-.046.117-.091.232-.141.345l-.176.394.985,1.97-1.646,1.646-1.97-.985-.394.176c-.112.051-.226.1-.342.14l-.406.154-.7,2.093H27.077l-.7-2.093-.406-.154c-.116-.044-.229-.089-.342-.14l-.394-.176-1.97.985-1.646-1.646.985-1.97-.176-.394c-.051-.114-.1-.229-.141-.345l-.154-.4-2.091-.7V38.008l2.09-.7.154-.4c.046-.117.091-.232.141-.346l.176-.394L21.62,34.2l1.646-1.646,1.97.985.394-.176c.112-.051.226-.1.342-.14l.406-.154.7-2.093h2.331l.7,2.093.406.154c.116.044.229.089.342.14l.394.176,1.97-.985L34.861,34.2l-.985,1.97.176.394c.051.114.1.229.141.345l.154.4,2.094.694Zm6.378,14.323a.911.911,0,1,1,.911-.911.911.911,0,0,1-.911.911Zm9.11-7.288a1.822,1.822,0,1,1-1.822-1.822A1.822,1.822,0,0,1,51.93,47.374ZM45.552,23.687h9.11v3.644h-9.11Zm0,0" fill="#48b9b7"/>
    </g>
  </g>
</svg>
