<svg xmlns="http://www.w3.org/2000/svg" width="158.681" height="79.77" viewBox="0 0 158.681 79.77">
  <g id="logobottom1" transform="translate(0 1.5)">
    <g id="Group_541" data-name="Group 541" transform="translate(0 46.079)">
      <path id="Path_745" data-name="Path 745" d="M319.833,462.113v22.352h-6.646V462.113h-8.793v-6.12h24.231v6.12Z" transform="translate(-304.394 -452.912)" fill="#1b1b34"/>
      <path id="Path_746" data-name="Path 746" d="M424.426,466.075v13.088h-6.443V467.52c0-2.508-1.418-4.207-3.525-4.207-2.512,0-4.173,1.827-4.173,5.949v9.9H403.8v-30.6h6.485v11.3a8.282,8.282,0,0,1,6.28-2.677C421.266,457.194,424.426,460.721,424.426,466.075Z" transform="translate(-376.686 -447.61)" fill="#1b1b34"/>
      <path id="Path_747" data-name="Path 747" d="M521.04,491.77H506.13c.527,2.55,2.189,4.122,4.376,4.122a4.467,4.467,0,0,0,4.336-2.465l5.754,1.232c-1.742,4.5-5.43,6.671-10.09,6.671-5.876,0-10.738-4.548-10.738-11.3,0-6.714,4.862-11.3,10.779-11.3,5.754,0,10.373,4.334,10.495,11.3Zm-14.79-4.165h8.389a4.1,4.1,0,0,0-4.093-3.357A4.488,4.488,0,0,0,506.25,487.606Z" transform="translate(-446.478 -469.141)" fill="#1b1b34"/>
      <path id="Path_748" data-name="Path 748" d="M616.669,484.466h-6.646V473.2H598.6v11.261h-6.686V455.994H598.6v11.094h11.427V455.994h6.646Z" transform="translate(-513.488 -452.912)" fill="#e9cf42"/>
      <path id="Path_749" data-name="Path 749" d="M701.7,449.245a3.663,3.663,0,0,1-3.769,3.783,3.454,3.454,0,0,1-2.648-1.041,3.837,3.837,0,1,1,6.418-2.741Zm-7.011,27.622V455.532h6.485v21.334Z" transform="translate(-587.876 -445.313)" fill="#e9cf42"/>
      <path id="Path_750" data-name="Path 750" d="M740.365,502.177h-6.6L725.332,480.8h6.848l4.9,13.173,4.862-13.173h6.849Z" transform="translate(-610.517 -470.624)" fill="#e9cf42"/>
      <path id="Path_751" data-name="Path 751" d="M829.435,491.77H814.524c.527,2.55,2.189,4.122,4.376,4.122a4.467,4.467,0,0,0,4.336-2.465l5.753,1.232c-1.742,4.5-5.429,6.671-10.09,6.671-5.876,0-10.738-4.548-10.738-11.3,0-6.714,4.863-11.3,10.779-11.3,5.754,0,10.373,4.334,10.495,11.3Zm-14.79-4.165h8.39a4.1,4.1,0,0,0-4.093-3.357,4.489,4.489,0,0,0-4.3,3.357Z" transform="translate(-670.754 -469.141)" fill="#e9cf42"/>
    </g>
    <g id="Group_543" data-name="Group 543" transform="translate(63.723)">
      <g id="Group_542" data-name="Group 542" transform="translate(0.93 5.648)">
        <path id="Path_752" data-name="Path 752" d="M556.129,317.4a4.231,4.231,0,0,1,3.914,3.885c-.005,2.059-3.227,2.212-3.855,2.21h0c-.706,0-3.848-.1-3.842-2.237a3.954,3.954,0,0,1,3.783-3.859Zm-4.152,21.32,8.09.028.7,1.9-9.5-.034ZM553.085,336l.713-1.892,4.556.016.7,1.9Zm1.742-4.525,1.267-3.208,1.247,3.216Zm-9.538,10.594a3.051,3.051,0,0,1-1.491-.338,4.193,4.193,0,0,1-2.1-5.361c2.217-5.6,8.906-9.607,12.52-10.171l-2.376,6.09h0l-1.744,4.524h0l-1.108,2.714a4.1,4.1,0,0,1-3.7,2.541Zm10.742,6.133c-2.591-.009-4.705-1.994-5.561-5.044l11.154.039c-.874,3.128-3,5.016-5.593,5.006Zm12.274-6.384a3.274,3.274,0,0,1-1.492.324,3.921,3.921,0,0,1-3.605-2.566l-1.091-2.721h0l-1.636-4.289a1.21,1.21,0,0,0-.156-.5l-2.259-5.939c3.611.672,10.275,4.731,12.456,10.258a4.349,4.349,0,0,1-.031,3.2A4.062,4.062,0,0,1,568.305,341.823Z" transform="translate(-541.398 -313.531)" fill="#e9cf42"/>
        <line id="Line_1" data-name="Line 1" x1="1.3" y1="2.896" transform="translate(10.451)" fill="none" stroke="#e9cf42" stroke-linecap="round" stroke-width="3"/>
        <line id="Line_2" data-name="Line 2" y1="2.896" x2="1.301" transform="translate(17.625)" fill="none" stroke="#e9cf42" stroke-linecap="round" stroke-width="3"/>
      </g>
      <path id="Path_753" data-name="Path 753" d="M565.8,304.809l3.456-6.505-7.833-14.172h-15.57L538.015,298.3l3.76,6.5" transform="translate(-538.015 -284.132)" fill="none" stroke="#e9cf42" stroke-linecap="round" stroke-width="3"/>
    </g>
  </g>
</svg>
