<svg xmlns="http://www.w3.org/2000/svg" width="672.489" height="574.672" viewBox="0 0 672.489 574.672">
  <g id="side" transform="translate(0 0)" opacity="0.1">
    <g id="Group_3" data-name="Group 3" transform="translate(0 0)">
      <path id="Path_21" data-name="Path 21" d="M319.641,82.382H41.191A41.191,41.191,0,0,1,41.191,0h278.45a41.191,41.191,0,0,1,0,82.382Z" transform="translate(155.829 0)" fill="#f2ffff"/>
      <path id="Path_22" data-name="Path 22" d="M475.447,82.382H41.191A41.191,41.191,0,0,1,41.191,0H475.447a41.191,41.191,0,1,1,0,82.382Z" transform="translate(77.923 369.215)" fill="#f2ffff"/>
      <path id="Path_23" data-name="Path 23" d="M319.641,82.382H41.191A41.191,41.191,0,0,1,41.191,0h278.45a41.191,41.191,0,0,1,0,82.382Z" transform="translate(155.829 492.29)" fill="#f2ffff"/>
      <path id="Path_24" data-name="Path 24" d="M631.3,0H41.191a41.191,41.191,0,0,0,0,82.382H368.253a34.649,34.649,0,0,1,20.639,26.192l7.239,45.031c6.373,39.685,63.822,38.836,69.025-1.015l5.618-43a34.655,34.655,0,0,1,20.734-27.211H631.3A41.191,41.191,0,1,0,631.3,0Z" transform="translate(0 245.203)" fill="#f2ffff"/>
      <path id="Path_25" data-name="Path 25" d="M475.441,0H41.191a41.191,41.191,0,0,0,0,82.382H181.176a30.518,30.518,0,0,1,30.27,26.553l4.912,37.642c4.558,34.883,54.829,35.62,60.414.893l6.334-39.42A30.523,30.523,0,0,1,313.25,82.382H475.441a41.191,41.191,0,1,0,0-82.382Z" transform="translate(77.929 122.425)" fill="#f2ffff"/>
    </g>
  </g>
</svg>
